<svg version="1.1" id="el_UafhLbEKW" xmlns="http://www.w3.org/2000/svg" xmlns:xlink="http://www.w3.org/1999/xlink" x="0px" y="0px" viewBox="0 0 512 512" style="enable-background:new 0 0 512 512;" xml:space="preserve"><style>@-webkit-keyframes kf_el_Kmd87EUyytF_an_E5gWTihWh{0%{-webkit-transform: translate(423.94749450683594px, 118.15400695800781px) translate(-423.94749450683594px, -118.15400695800781px) translate(-700px, 0px);transform: translate(423.94749450683594px, 118.15400695800781px) translate(-423.94749450683594px, -118.15400695800781px) translate(-700px, 0px);}21.43%{-webkit-transform: translate(423.94749450683594px, 118.15400695800781px) translate(-423.94749450683594px, -118.15400695800781px) translate(-700px, 0px);transform: translate(423.94749450683594px, 118.15400695800781px) translate(-423.94749450683594px, -118.15400695800781px) translate(-700px, 0px);}93.33%{-webkit-transform: translate(423.94749450683594px, 118.15400695800781px) translate(-423.94749450683594px, -118.15400695800781px) translate(600px, 0px);transform: translate(423.94749450683594px, 118.15400695800781px) translate(-423.94749450683594px, -118.15400695800781px) translate(600px, 0px);}100%{-webkit-transform: translate(423.94749450683594px, 118.15400695800781px) translate(-423.94749450683594px, -118.15400695800781px) translate(600px, 0px);transform: translate(423.94749450683594px, 118.15400695800781px) translate(-423.94749450683594px, -118.15400695800781px) translate(600px, 0px);}}@keyframes kf_el_Kmd87EUyytF_an_E5gWTihWh{0%{-webkit-transform: translate(423.94749450683594px, 118.15400695800781px) translate(-423.94749450683594px, -118.15400695800781px) translate(-700px, 0px);transform: translate(423.94749450683594px, 118.15400695800781px) translate(-423.94749450683594px, -118.15400695800781px) translate(-700px, 0px);}21.43%{-webkit-transform: translate(423.94749450683594px, 118.15400695800781px) translate(-423.94749450683594px, -118.15400695800781px) translate(-700px, 0px);transform: translate(423.94749450683594px, 118.15400695800781px) translate(-423.94749450683594px, -118.15400695800781px) translate(-700px, 0px);}93.33%{-webkit-transform: translate(423.94749450683594px, 118.15400695800781px) translate(-423.94749450683594px, -118.15400695800781px) translate(600px, 0px);transform: translate(423.94749450683594px, 118.15400695800781px) translate(-423.94749450683594px, -118.15400695800781px) translate(600px, 0px);}100%{-webkit-transform: translate(423.94749450683594px, 118.15400695800781px) translate(-423.94749450683594px, -118.15400695800781px) translate(600px, 0px);transform: translate(423.94749450683594px, 118.15400695800781px) translate(-423.94749450683594px, -118.15400695800781px) translate(600px, 0px);}}@-webkit-keyframes kf_el_Cg3OCLnPlCI_an_41MpAKnQN{0%{-webkit-transform: translate(480.2109832763672px, 118.15400695800781px) translate(-480.2109832763672px, -118.15400695800781px) translate(-700px, 0px);transform: translate(480.2109832763672px, 118.15400695800781px) translate(-480.2109832763672px, -118.15400695800781px) translate(-700px, 0px);}21.43%{-webkit-transform: translate(480.2109832763672px, 118.15400695800781px) translate(-480.2109832763672px, -118.15400695800781px) translate(-700px, 0px);transform: translate(480.2109832763672px, 118.15400695800781px) translate(-480.2109832763672px, -118.15400695800781px) translate(-700px, 0px);}93.33%{-webkit-transform: translate(480.2109832763672px, 118.15400695800781px) translate(-480.2109832763672px, -118.15400695800781px) translate(600px, 0px);transform: translate(480.2109832763672px, 118.15400695800781px) translate(-480.2109832763672px, -118.15400695800781px) translate(600px, 0px);}100%{-webkit-transform: translate(480.2109832763672px, 118.15400695800781px) translate(-480.2109832763672px, -118.15400695800781px) translate(600px, 0px);transform: translate(480.2109832763672px, 118.15400695800781px) translate(-480.2109832763672px, -118.15400695800781px) translate(600px, 0px);}}@keyframes kf_el_Cg3OCLnPlCI_an_41MpAKnQN{0%{-webkit-transform: translate(480.2109832763672px, 118.15400695800781px) translate(-480.2109832763672px, -118.15400695800781px) translate(-700px, 0px);transform: translate(480.2109832763672px, 118.15400695800781px) translate(-480.2109832763672px, -118.15400695800781px) translate(-700px, 0px);}21.43%{-webkit-transform: translate(480.2109832763672px, 118.15400695800781px) translate(-480.2109832763672px, -118.15400695800781px) translate(-700px, 0px);transform: translate(480.2109832763672px, 118.15400695800781px) translate(-480.2109832763672px, -118.15400695800781px) translate(-700px, 0px);}93.33%{-webkit-transform: translate(480.2109832763672px, 118.15400695800781px) translate(-480.2109832763672px, -118.15400695800781px) translate(600px, 0px);transform: translate(480.2109832763672px, 118.15400695800781px) translate(-480.2109832763672px, -118.15400695800781px) translate(600px, 0px);}100%{-webkit-transform: translate(480.2109832763672px, 118.15400695800781px) translate(-480.2109832763672px, -118.15400695800781px) translate(600px, 0px);transform: translate(480.2109832763672px, 118.15400695800781px) translate(-480.2109832763672px, -118.15400695800781px) translate(600px, 0px);}}@-webkit-keyframes kf_el_VkdK8WUwGv_an_7n74lBVcI{0%{-webkit-transform: translate(197.76698875427246px, 42.197998046875px) translate(-197.76698875427246px, -42.197998046875px) translate(-700px, 0px);transform: translate(197.76698875427246px, 42.197998046875px) translate(-197.76698875427246px, -42.197998046875px) translate(-700px, 0px);}100%{-webkit-transform: translate(197.76698875427246px, 42.197998046875px) translate(-197.76698875427246px, -42.197998046875px) translate(900px, 0px);transform: translate(197.76698875427246px, 42.197998046875px) translate(-197.76698875427246px, -42.197998046875px) translate(900px, 0px);}}@keyframes kf_el_VkdK8WUwGv_an_7n74lBVcI{0%{-webkit-transform: translate(197.76698875427246px, 42.197998046875px) translate(-197.76698875427246px, -42.197998046875px) translate(-700px, 0px);transform: translate(197.76698875427246px, 42.197998046875px) translate(-197.76698875427246px, -42.197998046875px) translate(-700px, 0px);}100%{-webkit-transform: translate(197.76698875427246px, 42.197998046875px) translate(-197.76698875427246px, -42.197998046875px) translate(900px, 0px);transform: translate(197.76698875427246px, 42.197998046875px) translate(-197.76698875427246px, -42.197998046875px) translate(900px, 0px);}}@-webkit-keyframes kf_el_KwQGcw1US3_an_b5BrqBVCH{0%{-webkit-transform: translate(397.5030059814453px, 28.131999969482422px) translate(-397.5030059814453px, -28.131999969482422px) translate(-700px, 0px);transform: translate(397.5030059814453px, 28.131999969482422px) translate(-397.5030059814453px, -28.131999969482422px) translate(-700px, 0px);}100%{-webkit-transform: translate(397.5030059814453px, 28.131999969482422px) translate(-397.5030059814453px, -28.131999969482422px) translate(900px, 0px);transform: translate(397.5030059814453px, 28.131999969482422px) translate(-397.5030059814453px, -28.131999969482422px) translate(900px, 0px);}}@keyframes kf_el_KwQGcw1US3_an_b5BrqBVCH{0%{-webkit-transform: translate(397.5030059814453px, 28.131999969482422px) translate(-397.5030059814453px, -28.131999969482422px) translate(-700px, 0px);transform: translate(397.5030059814453px, 28.131999969482422px) translate(-397.5030059814453px, -28.131999969482422px) translate(-700px, 0px);}100%{-webkit-transform: translate(397.5030059814453px, 28.131999969482422px) translate(-397.5030059814453px, -28.131999969482422px) translate(900px, 0px);transform: translate(397.5030059814453px, 28.131999969482422px) translate(-397.5030059814453px, -28.131999969482422px) translate(900px, 0px);}}#el_UafhLbEKW *{-webkit-animation-duration: 7s;animation-duration: 7s;-webkit-animation-iteration-count: infinite;animation-iteration-count: infinite;-webkit-animation-timing-function: cubic-bezier(0, 0, 1, 1);animation-timing-function: cubic-bezier(0, 0, 1, 1);}#el_hTfYZKOAbO{fill: #326E7D;}#el_hJDQMvfEPM{fill: #4393A8;}#el_KwQGcw1US3{fill: #B3EFFF;}#el_VkdK8WUwGv{fill: #D9F7FF;}#el_LYflFGd80b{fill: #E86C16;}#el_vTDk10dEpH{fill: #FFA850;}#el_Dwqcg2kSWr{fill: #66DEFE;}#el_5_vMyWbipT{fill: #8CE6FE;}#el_n1xMuZfwVe{fill: #875B51;}#el_P_q0VQnTit{fill: #FFFFFF;}#el_BU3mpSaBm2{fill: #FFFFFF;}#el_Jm4utPJNXi{fill: #FFFFFF;}#el_E2iZ4aQ1EO{fill: #705147;}#el_7F9SOI2GuD{fill: #875B51;}#el_vaxU2F2Any_{fill: #FFFFFF;}#el_wlJJej7rXw-{fill: #FFFFFF;}#el_sOjN2p7xNVk{fill: #FFFFFF;}#el_E_mGSHDuBzS{fill: #FFFFFF;}#el_X0G4O_8ZFGz{fill: #875B51;}#el_-x67mCY7NbW{fill: #705147;}#el_fnq_hJiPMx_{fill: #8CE6FE;}#el_VhMDLrOxGl-{fill: #B3EFFF;}#el_-qLY8_zuUiY{fill: #4D392F;}#el_efVAEGtsHlt{fill: #FFFFFF;}#el_tXwTIfzTlAj{fill: #FFFFFF;}#el_oRx5YOyh1So{fill: #FFFFFF;}#el_T-GWpZ1eTu7{fill: #FFFFFF;}#el__2ydtv6xijG{fill: #FFD686;}#el_gHiHY2eS7hE{fill: #FFEDC6;}#el_07lQLCq5tI-{fill: #FFFFFF;}#el_jwD6Du8Bn1m{fill: #FFFFFF;}#el_qCHHKE5skTr{fill: #FFFFFF;}#el_AHad1BCg17V{fill: #FFFFFF;}#el_aNelNLUhRUp{fill: #FFFFFF;}#el_Cg3OCLnPlCI{fill: #B3EFFF;}#el_Kmd87EUyytF{fill: #D9F7FF;}#el_cP9GwVhLSgI{fill: #4393A8;}#el_obP6xKilzVL{fill: #55B9D3;}#el_cNVTeJxyyLn{fill: #4393A8;}#el_3NQLUW9eFB7{fill: #55B9D3;}#el_qUq_dpHKJC4{fill: #55B9D3;}#el_3OXXCs-Oj7C{fill: #66DEFE;}#el_eNC625rrm89{fill: #326E7D;}#el_nj7ijJdFM8Y{fill: #FFFFFF;}#el_o4xOtmyqJnz{fill: #FFFFFF;}#el_q01UuWulzC2{fill: #FFFFFF;}#el_qEz63H6T4BM{fill: #FFFFFF;}#el_vwpgX_Z1rx5{fill: #FFFFFF;}#el_fbg_fNsOxbM{fill: #66DEFE;}#el_mrdyaf68U4T{fill: #B3EFFF;}#el_DuJ_Y6Aq_ct{fill: #326E7D;}#el_KwQGcw1US3_an_b5BrqBVCH{-webkit-animation-fill-mode: backwards;animation-fill-mode: backwards;-webkit-transform: translate(397.5030059814453px, 28.131999969482422px) translate(-397.5030059814453px, -28.131999969482422px) translate(-700px, 0px);transform: translate(397.5030059814453px, 28.131999969482422px) translate(-397.5030059814453px, -28.131999969482422px) translate(-700px, 0px);-webkit-animation-name: kf_el_KwQGcw1US3_an_b5BrqBVCH;animation-name: kf_el_KwQGcw1US3_an_b5BrqBVCH;-webkit-animation-timing-function: cubic-bezier(0.42, 0, 0.58, 1);animation-timing-function: cubic-bezier(0.42, 0, 0.58, 1);}#el_VkdK8WUwGv_an_7n74lBVcI{-webkit-animation-fill-mode: backwards;animation-fill-mode: backwards;-webkit-transform: translate(197.76698875427246px, 42.197998046875px) translate(-197.76698875427246px, -42.197998046875px) translate(-700px, 0px);transform: translate(197.76698875427246px, 42.197998046875px) translate(-197.76698875427246px, -42.197998046875px) translate(-700px, 0px);-webkit-animation-name: kf_el_VkdK8WUwGv_an_7n74lBVcI;animation-name: kf_el_VkdK8WUwGv_an_7n74lBVcI;-webkit-animation-timing-function: cubic-bezier(0.42, 0, 0.58, 1);animation-timing-function: cubic-bezier(0.42, 0, 0.58, 1);}#el_Cg3OCLnPlCI_an_41MpAKnQN{-webkit-animation-fill-mode: backwards;animation-fill-mode: backwards;-webkit-transform: translate(480.2109832763672px, 118.15400695800781px) translate(-480.2109832763672px, -118.15400695800781px) translate(-700px, 0px);transform: translate(480.2109832763672px, 118.15400695800781px) translate(-480.2109832763672px, -118.15400695800781px) translate(-700px, 0px);-webkit-animation-name: kf_el_Cg3OCLnPlCI_an_41MpAKnQN;animation-name: kf_el_Cg3OCLnPlCI_an_41MpAKnQN;-webkit-animation-timing-function: cubic-bezier(0.42, 0, 0.58, 1);animation-timing-function: cubic-bezier(0.42, 0, 0.58, 1);}#el_Kmd87EUyytF_an_E5gWTihWh{-webkit-animation-fill-mode: backwards;animation-fill-mode: backwards;-webkit-transform: translate(423.94749450683594px, 118.15400695800781px) translate(-423.94749450683594px, -118.15400695800781px) translate(-700px, 0px);transform: translate(423.94749450683594px, 118.15400695800781px) translate(-423.94749450683594px, -118.15400695800781px) translate(-700px, 0px);-webkit-animation-name: kf_el_Kmd87EUyytF_an_E5gWTihWh;animation-name: kf_el_Kmd87EUyytF_an_E5gWTihWh;-webkit-animation-timing-function: cubic-bezier(0.42, 0, 0.58, 1);animation-timing-function: cubic-bezier(0.42, 0, 0.58, 1);}</style>
<path d="M461.644,205.363c-4.662,0-8.44,3.778-8.44,8.44v56.264h16.879v-56.264&#10;&#9;C470.084,209.14,466.306,205.363,461.644,205.363z" id="el_hTfYZKOAbO"/>
<path d="M50.356,171.604c-4.662,0-8.44,3.778-8.44,8.44v56.264h16.879v-56.264&#10;&#9;C58.796,175.382,55.018,171.604,50.356,171.604z" id="el_hJDQMvfEPM"/>
<g id="el_KwQGcw1US3_an_b5BrqBVCH" data-animator-group="true" data-animator-type="0"><path d="M400.316,56.264h-33.758V0h33.758c15.54,0,28.132,12.592,28.132,28.132&#10;&#9;S415.857,56.264,400.316,56.264z" id="el_KwQGcw1US3"/></g>
<g id="el_VkdK8WUwGv_an_7n74lBVcI" data-animator-group="true" data-animator-type="0"><path d="M366.558,0H169.635c-15.54,0-28.132,12.592-28.132,28.132H28.976&#10;&#9;c-15.54,0-28.132,12.592-28.132,28.132s12.592,28.132,28.132,28.132h199.736c15.54,0,28.132-12.592,28.132-28.132h109.714&#10;&#9;c15.54,0,28.132-12.592,28.132-28.132S382.098,0,366.558,0z" id="el_VkdK8WUwGv"/></g>
<polygon points="466.145,421.978 488.651,512 511.156,512 511.156,444.484 " id="el_LYflFGd80b"/>
<polygon points="389.626,421.978 412.132,512 488.651,512 488.651,421.978 " id="el_vTDk10dEpH"/>
<polygon points="511.156,247.56 488.651,247.56 454.892,346.022 488.651,444.484 511.156,444.484 " id="el_Dwqcg2kSWr"/>
<rect x="389.626" y="247.56" width="99.024" height="196.923" id="el_5_vMyWbipT"/>
<path d="M461.644,469.802c-4.662,0-8.44,3.778-8.44,8.44V512h16.879v-33.758&#10;&#9;C470.084,473.58,466.306,469.802,461.644,469.802z" id="el_n1xMuZfwVe"/>
<g id="el_Ge3D3TjV3G">
	<path d="M461.644,402.286c-4.662,0-8.44-3.778-8.44-8.44v-11.253c0-4.662,3.778-8.44,8.44-8.44&#10;&#9;&#9;s8.44,3.778,8.44,8.44v11.253C470.084,398.508,466.306,402.286,461.644,402.286z" id="el_P_q0VQnTit"/>
	<path d="M461.644,357.275c-4.662,0-8.44-3.778-8.44-8.44v-11.253c0-4.662,3.778-8.44,8.44-8.44&#10;&#9;&#9;s8.44,3.778,8.44,8.44v11.253C470.084,353.497,466.306,357.275,461.644,357.275z" id="el_BU3mpSaBm2"/>
	<path d="M461.644,312.264c-4.662,0-8.44-3.778-8.44-8.44v-11.253c0-4.662,3.778-8.44,8.44-8.44&#10;&#9;&#9;s8.44,3.778,8.44,8.44v11.253C470.084,308.486,466.306,312.264,461.644,312.264z" id="el_Jm4utPJNXi"/>
</g>
<polygon points="412.132,213.802 412.132,512 389.626,512 344.615,365.152 389.626,206.128 " id="el_E2iZ4aQ1EO"/>
<polygon points="389.626,206.128 389.626,512 313.108,512 290.602,202.549 313.108,180.044 " id="el_7F9SOI2GuD"/>
<g id="el_czZtQzjFaVU">
	<path d="M362.62,402.286c-4.662,0-8.44-3.778-8.44-8.44v-11.253c0-4.662,3.778-8.44,8.44-8.44&#10;&#9;&#9;c4.662,0,8.44,3.778,8.44,8.44v11.253C371.059,398.508,367.282,402.286,362.62,402.286z" id="el_vaxU2F2Any_"/>
	<path d="M362.62,357.275c-4.662,0-8.44-3.778-8.44-8.44v-11.253c0-4.662,3.778-8.44,8.44-8.44&#10;&#9;&#9;c4.662,0,8.44,3.778,8.44,8.44v11.253C371.059,353.497,367.282,357.275,362.62,357.275z" id="el_wlJJej7rXw-"/>
	<path d="M362.62,312.264c-4.662,0-8.44-3.778-8.44-8.44v-11.253c0-4.662,3.778-8.44,8.44-8.44&#10;&#9;&#9;c4.662,0,8.44,3.778,8.44,8.44v11.253C371.059,308.486,367.282,312.264,362.62,312.264z" id="el_sOjN2p7xNVk"/>
	<path d="M362.62,267.253c-4.662,0-8.44-3.778-8.44-8.44V247.56c0-4.662,3.778-8.44,8.44-8.44&#10;&#9;&#9;c4.662,0,8.44,3.778,8.44,8.44v11.253C371.059,263.475,367.282,267.253,362.62,267.253z" id="el_E_mGSHDuBzS"/>
</g>
<polygon points="0.844,399.473 0.844,512 77.363,512 99.868,376.967 " id="el_X0G4O_8ZFGz"/>
<polygon points="77.363,376.967 77.363,512 99.868,512 122.374,376.967 " id="el_-x67mCY7NbW"/>
<polygon points="122.374,213.802 77.363,213.802 43.604,306.637 77.363,399.473 122.374,399.473 " id="el_fnq_hJiPMx_"/>
<rect x="0.844" y="213.802" width="76.519" height="185.67" id="el_VhMDLrOxGl-"/>
<path d="M50.356,469.802c-4.662,0-8.44,3.778-8.44,8.44V512h16.879v-33.758&#10;&#9;C58.796,473.58,55.018,469.802,50.356,469.802z" id="el_-qLY8_zuUiY"/>
<g id="el_HZsJHddrKQs">
	<path d="M50.356,452.923c-4.662,0-8.44-3.778-8.44-8.44v-11.253c0-4.662,3.778-8.44,8.44-8.44&#10;&#9;&#9;s8.44,3.778,8.44,8.44v11.253C58.796,449.146,55.018,452.923,50.356,452.923z" id="el_efVAEGtsHlt"/>
	<path d="M50.356,357.275c-4.662,0-8.44-3.778-8.44-8.44v-11.253c0-4.662,3.778-8.44,8.44-8.44&#10;&#9;&#9;s8.44,3.778,8.44,8.44v11.253C58.796,353.497,55.018,357.275,50.356,357.275z" id="el_tXwTIfzTlAj"/>
	<path d="M50.356,312.264c-4.662,0-8.44-3.778-8.44-8.44v-11.253c0-4.662,3.778-8.44,8.44-8.44&#10;&#9;&#9;s8.44,3.778,8.44,8.44v11.253C58.796,308.486,55.018,312.264,50.356,312.264z" id="el_oRx5YOyh1So"/>
	<path d="M50.356,267.253c-4.662,0-8.44-3.778-8.44-8.44V247.56c0-4.662,3.778-8.44,8.44-8.44&#10;&#9;&#9;s8.44,3.778,8.44,8.44v11.253C58.796,263.475,55.018,267.253,50.356,267.253z" id="el_T-GWpZ1eTu7"/>
</g>
<polygon points="176.387,123.78 142.629,317.89 176.387,512 198.892,512 221.398,123.78 " id="el__2ydtv6xijG"/>
<rect x="99.868" y="123.78" width="76.519" height="388.22" id="el_gHiHY2eS7hE"/>
<g id="el_1Pb-go4f8PF">
	<path d="M149.38,357.275c-4.662,0-8.44-3.778-8.44-8.44v-11.253c0-4.662,3.778-8.44,8.44-8.44&#10;&#9;&#9;c4.662,0,8.44,3.778,8.44,8.44v11.253C157.82,353.497,154.042,357.275,149.38,357.275z" id="el_07lQLCq5tI-"/>
	<path d="M149.38,312.264c-4.662,0-8.44-3.778-8.44-8.44v-11.253c0-4.662,3.778-8.44,8.44-8.44&#10;&#9;&#9;c4.662,0,8.44,3.778,8.44,8.44v11.253C157.82,308.486,154.042,312.264,149.38,312.264z" id="el_jwD6Du8Bn1m"/>
	<path d="M149.38,267.253c-4.662,0-8.44-3.778-8.44-8.44V247.56c0-4.662,3.778-8.44,8.44-8.44&#10;&#9;&#9;c4.662,0,8.44,3.778,8.44,8.44v11.253C157.82,263.475,154.042,267.253,149.38,267.253z" id="el_qCHHKE5skTr"/>
	<path d="M149.38,222.242c-4.662,0-8.44-3.778-8.44-8.44v-11.253c0-4.662,3.778-8.44,8.44-8.44&#10;&#9;&#9;c4.662,0,8.44,3.778,8.44,8.44v11.253C157.82,218.464,154.042,222.242,149.38,222.242z" id="el_AHad1BCg17V"/>
	<path d="M149.38,177.231c-4.662,0-8.44-3.778-8.44-8.44v-11.253c0-4.662,3.778-8.44,8.44-8.44&#10;&#9;&#9;c4.662,0,8.44,3.778,8.44,8.44v11.253C157.82,173.453,154.042,177.231,149.38,177.231z" id="el_aNelNLUhRUp"/>
</g>
<g id="el_Cg3OCLnPlCI_an_41MpAKnQN" data-animator-group="true" data-animator-type="0"><path d="M483.024,90.022h-33.758v56.264h33.758c15.54,0,28.132-12.592,28.132-28.132&#10;&#9;S498.564,90.022,483.024,90.022z" id="el_Cg3OCLnPlCI"/></g>
<g id="el_Kmd87EUyytF_an_E5gWTihWh" data-animator-group="true" data-animator-type="0"><path d="M449.266,90.022h-50.637c-15.54,0-28.132,12.592-28.132,28.132s12.592,28.132,28.132,28.132h50.637&#10;&#9;c15.54,0,28.132-12.592,28.132-28.132S464.806,90.022,449.266,90.022z" id="el_Kmd87EUyytF"/></g>
<path d="M290.602,84.396c0-18.645-15.114-33.758-33.758-33.758l-22.505,129.407l80.457-22.505V84.396H290.602&#10;&#9;z" id="el_cP9GwVhLSgI"/>
<path d="M223.086,84.396h-24.193v73.143l57.952,22.505V50.637C238.199,50.637,223.086,65.751,223.086,84.396z&#10;&#9;" id="el_obP6xKilzVL"/>
<polygon points="256.844,393.846 198.892,416.352 198.892,450.11 281.037,512 314.796,512 314.796,416.352 &#10;&#9;" id="el_cNVTeJxyyLn"/>
<g id="el_BsklpiLunLu">
	<rect x="198.892" y="450.11" width="82.145" height="61.89" id="el_3NQLUW9eFB7"/>
	<polygon points="314.796,157.538 281.037,157.538 258.532,286.945 281.037,416.352 314.796,416.352 &#9;" id="el_qUq_dpHKJC4"/>
</g>
<rect x="198.892" y="157.538" width="82.145" height="258.813" id="el_3OXXCs-Oj7C"/>
<circle cx="256.844" cy="84.396" r="8.44" id="el_eNC625rrm89"/>
<g id="el_QJjeryYfo7t">
	<path d="M256.844,391.033c-4.662,0-8.44-3.778-8.44-8.44v-11.253c0-4.662,3.778-8.44,8.44-8.44&#10;&#9;&#9;s8.44,3.778,8.44,8.44v11.253C265.284,387.255,261.506,391.033,256.844,391.033z" id="el_nj7ijJdFM8Y"/>
	<path d="M256.844,346.022c-4.662,0-8.44-3.778-8.44-8.44V326.33c0-4.662,3.778-8.44,8.44-8.44&#10;&#9;&#9;s8.44,3.778,8.44,8.44v11.253C265.284,342.244,261.506,346.022,256.844,346.022z" id="el_o4xOtmyqJnz"/>
	<path d="M256.844,301.011c-4.662,0-8.44-3.778-8.44-8.44v-11.253c0-4.662,3.778-8.44,8.44-8.44&#10;&#9;&#9;s8.44,3.778,8.44,8.44v11.253C265.284,297.233,261.506,301.011,256.844,301.011z" id="el_q01UuWulzC2"/>
	<path d="M256.844,256c-4.662,0-8.44-3.778-8.44-8.44v-11.253c0-4.662,3.778-8.44,8.44-8.44&#10;&#9;&#9;s8.44,3.778,8.44,8.44v11.253C265.284,252.222,261.506,256,256.844,256z" id="el_qEz63H6T4BM"/>
	<path d="M256.844,210.989c-4.662,0-8.44-3.778-8.44-8.44v-11.253c0-4.662,3.778-8.44,8.44-8.44&#10;&#9;&#9;s8.44,3.778,8.44,8.44v11.253C265.284,207.211,261.506,210.989,256.844,210.989z" id="el_vwpgX_Z1rx5"/>
</g>
<path d="M281.037,132.22h-48.387c-4.662,0-8.44-3.778-8.44-8.44c0-4.662,3.778-8.44,8.44-8.44h48.387&#10;&#9;c4.662,0,8.44,3.778,8.44,8.44C289.477,128.442,285.699,132.22,281.037,132.22z" id="el_fbg_fNsOxbM"/>
<path d="M317.609,424.791h-121.53c-4.662,0-8.44-3.778-8.44-8.44s3.778-8.44,8.44-8.44h121.53&#10;&#9;c4.662,0,8.44,3.778,8.44,8.44S322.271,424.791,317.609,424.791z" id="el_mrdyaf68U4T"/>
<path d="M256.844,469.802c-4.662,0-8.44,3.778-8.44,8.44V512h16.879v-33.758&#10;&#9;C265.284,473.58,261.506,469.802,256.844,469.802z" id="el_DuJ_Y6Aq_ct"/>
<g id="el_1Lj7t_Q6fk4">
</g>
<g id="el_CX0W_RuFGaO">
</g>
<g id="el_FABhx1Ejv4a">
</g>
<g id="el_5EeGWLLNqPv">
</g>
<g id="el_qqQQ0ouPigT">
</g>
<g id="el_2BA5bhkBFSq">
</g>
<g id="el_elSLF2W8Wem">
</g>
<g id="el_nNWTAO_qEWJ">
</g>
<g id="el_hCuTimRrB_V">
</g>
<g id="el_-IAGaPw9ICo">
</g>
<g id="el_wzqp8pjursE">
</g>
<g id="el_Uml3lOgS5ds">
</g>
<g id="el_df0so36bPeV">
</g>
<g id="el__kBTf2LODbV">
</g>
<g id="el_lCZqpPsQSVE">
</g>
</svg>