<svg version="1.1" id="el_K3cI-AKnn" xmlns="http://www.w3.org/2000/svg" xmlns:xlink="http://www.w3.org/1999/xlink" x="0px" y="0px" viewBox="0 0 60 60" style="enable-background:new 0 0 60.003 60.003;" xml:space="preserve"><style>@-webkit-keyframes kf_el_k6y7r94ZVN_an_5UPxG8GUj{0%{-webkit-transform: translate(49.45800018310547px, 39.29399871826172px) translate(-49.45800018310547px, -39.29399871826172px) translate(0px, 0px);transform: translate(49.45800018310547px, 39.29399871826172px) translate(-49.45800018310547px, -39.29399871826172px) translate(0px, 0px);}50%{-webkit-transform: translate(49.45800018310547px, 39.29399871826172px) translate(-49.45800018310547px, -39.29399871826172px) translate(10px, 0px);transform: translate(49.45800018310547px, 39.29399871826172px) translate(-49.45800018310547px, -39.29399871826172px) translate(10px, 0px);}100%{-webkit-transform: translate(49.45800018310547px, 39.29399871826172px) translate(-49.45800018310547px, -39.29399871826172px) translate(0px, 0px);transform: translate(49.45800018310547px, 39.29399871826172px) translate(-49.45800018310547px, -39.29399871826172px) translate(0px, 0px);}}@keyframes kf_el_k6y7r94ZVN_an_5UPxG8GUj{0%{-webkit-transform: translate(49.45800018310547px, 39.29399871826172px) translate(-49.45800018310547px, -39.29399871826172px) translate(0px, 0px);transform: translate(49.45800018310547px, 39.29399871826172px) translate(-49.45800018310547px, -39.29399871826172px) translate(0px, 0px);}50%{-webkit-transform: translate(49.45800018310547px, 39.29399871826172px) translate(-49.45800018310547px, -39.29399871826172px) translate(10px, 0px);transform: translate(49.45800018310547px, 39.29399871826172px) translate(-49.45800018310547px, -39.29399871826172px) translate(10px, 0px);}100%{-webkit-transform: translate(49.45800018310547px, 39.29399871826172px) translate(-49.45800018310547px, -39.29399871826172px) translate(0px, 0px);transform: translate(49.45800018310547px, 39.29399871826172px) translate(-49.45800018310547px, -39.29399871826172px) translate(0px, 0px);}}@-webkit-keyframes kf_el_lGteSrGwFx_an_XzsYgnPbV{0%{-webkit-transform: translate(31.00299835205078px, 47.705997467041016px) translate(-31.00299835205078px, -47.705997467041016px) translate(0px, 0px);transform: translate(31.00299835205078px, 47.705997467041016px) translate(-31.00299835205078px, -47.705997467041016px) translate(0px, 0px);}50%{-webkit-transform: translate(31.00299835205078px, 47.705997467041016px) translate(-31.00299835205078px, -47.705997467041016px) translate(10px, 0px);transform: translate(31.00299835205078px, 47.705997467041016px) translate(-31.00299835205078px, -47.705997467041016px) translate(10px, 0px);}100%{-webkit-transform: translate(31.00299835205078px, 47.705997467041016px) translate(-31.00299835205078px, -47.705997467041016px) translate(0px, 0px);transform: translate(31.00299835205078px, 47.705997467041016px) translate(-31.00299835205078px, -47.705997467041016px) translate(0px, 0px);}}@keyframes kf_el_lGteSrGwFx_an_XzsYgnPbV{0%{-webkit-transform: translate(31.00299835205078px, 47.705997467041016px) translate(-31.00299835205078px, -47.705997467041016px) translate(0px, 0px);transform: translate(31.00299835205078px, 47.705997467041016px) translate(-31.00299835205078px, -47.705997467041016px) translate(0px, 0px);}50%{-webkit-transform: translate(31.00299835205078px, 47.705997467041016px) translate(-31.00299835205078px, -47.705997467041016px) translate(10px, 0px);transform: translate(31.00299835205078px, 47.705997467041016px) translate(-31.00299835205078px, -47.705997467041016px) translate(10px, 0px);}100%{-webkit-transform: translate(31.00299835205078px, 47.705997467041016px) translate(-31.00299835205078px, -47.705997467041016px) translate(0px, 0px);transform: translate(31.00299835205078px, 47.705997467041016px) translate(-31.00299835205078px, -47.705997467041016px) translate(0px, 0px);}}@-webkit-keyframes kf_el_MPFF1xkx6X_an_3Z-gAjixn{0%{-webkit-transform: translate(30.00336194038391px, 29.783002853393555px) translate(-30.00336194038391px, -29.783002853393555px) translate(0px, 0px);transform: translate(30.00336194038391px, 29.783002853393555px) translate(-30.00336194038391px, -29.783002853393555px) translate(0px, 0px);}50%{-webkit-transform: translate(30.00336194038391px, 29.783002853393555px) translate(-30.00336194038391px, -29.783002853393555px) translate(10px, 0px);transform: translate(30.00336194038391px, 29.783002853393555px) translate(-30.00336194038391px, -29.783002853393555px) translate(10px, 0px);}100%{-webkit-transform: translate(30.00336194038391px, 29.783002853393555px) translate(-30.00336194038391px, -29.783002853393555px) translate(0px, 0px);transform: translate(30.00336194038391px, 29.783002853393555px) translate(-30.00336194038391px, -29.783002853393555px) translate(0px, 0px);}}@keyframes kf_el_MPFF1xkx6X_an_3Z-gAjixn{0%{-webkit-transform: translate(30.00336194038391px, 29.783002853393555px) translate(-30.00336194038391px, -29.783002853393555px) translate(0px, 0px);transform: translate(30.00336194038391px, 29.783002853393555px) translate(-30.00336194038391px, -29.783002853393555px) translate(0px, 0px);}50%{-webkit-transform: translate(30.00336194038391px, 29.783002853393555px) translate(-30.00336194038391px, -29.783002853393555px) translate(10px, 0px);transform: translate(30.00336194038391px, 29.783002853393555px) translate(-30.00336194038391px, -29.783002853393555px) translate(10px, 0px);}100%{-webkit-transform: translate(30.00336194038391px, 29.783002853393555px) translate(-30.00336194038391px, -29.783002853393555px) translate(0px, 0px);transform: translate(30.00336194038391px, 29.783002853393555px) translate(-30.00336194038391px, -29.783002853393555px) translate(0px, 0px);}}@-webkit-keyframes kf_el_vOQejrOIPf_an_USmHGaQmA{0%{-webkit-transform: translate(31.00163745880127px, 31.464998245239258px) translate(-31.00163745880127px, -31.464998245239258px) translate(0px, 0px);transform: translate(31.00163745880127px, 31.464998245239258px) translate(-31.00163745880127px, -31.464998245239258px) translate(0px, 0px);}50%{-webkit-transform: translate(31.00163745880127px, 31.464998245239258px) translate(-31.00163745880127px, -31.464998245239258px) translate(10px, 0px);transform: translate(31.00163745880127px, 31.464998245239258px) translate(-31.00163745880127px, -31.464998245239258px) translate(10px, 0px);}100%{-webkit-transform: translate(31.00163745880127px, 31.464998245239258px) translate(-31.00163745880127px, -31.464998245239258px) translate(0px, 0px);transform: translate(31.00163745880127px, 31.464998245239258px) translate(-31.00163745880127px, -31.464998245239258px) translate(0px, 0px);}}@keyframes kf_el_vOQejrOIPf_an_USmHGaQmA{0%{-webkit-transform: translate(31.00163745880127px, 31.464998245239258px) translate(-31.00163745880127px, -31.464998245239258px) translate(0px, 0px);transform: translate(31.00163745880127px, 31.464998245239258px) translate(-31.00163745880127px, -31.464998245239258px) translate(0px, 0px);}50%{-webkit-transform: translate(31.00163745880127px, 31.464998245239258px) translate(-31.00163745880127px, -31.464998245239258px) translate(10px, 0px);transform: translate(31.00163745880127px, 31.464998245239258px) translate(-31.00163745880127px, -31.464998245239258px) translate(10px, 0px);}100%{-webkit-transform: translate(31.00163745880127px, 31.464998245239258px) translate(-31.00163745880127px, -31.464998245239258px) translate(0px, 0px);transform: translate(31.00163745880127px, 31.464998245239258px) translate(-31.00163745880127px, -31.464998245239258px) translate(0px, 0px);}}@-webkit-keyframes kf_el_fw6nAISiE3_an_FcWIeYqS5{0%{-webkit-transform: translate(16.90599811077118px, 20.62699604034424px) translate(-16.90599811077118px, -20.62699604034424px) translate(0px, 0px);transform: translate(16.90599811077118px, 20.62699604034424px) translate(-16.90599811077118px, -20.62699604034424px) translate(0px, 0px);}56.67%{-webkit-transform: translate(16.90599811077118px, 20.62699604034424px) translate(-16.90599811077118px, -20.62699604034424px) translate(10px, 0px);transform: translate(16.90599811077118px, 20.62699604034424px) translate(-16.90599811077118px, -20.62699604034424px) translate(10px, 0px);}100%{-webkit-transform: translate(16.90599811077118px, 20.62699604034424px) translate(-16.90599811077118px, -20.62699604034424px) translate(0px, 0px);transform: translate(16.90599811077118px, 20.62699604034424px) translate(-16.90599811077118px, -20.62699604034424px) translate(0px, 0px);}}@keyframes kf_el_fw6nAISiE3_an_FcWIeYqS5{0%{-webkit-transform: translate(16.90599811077118px, 20.62699604034424px) translate(-16.90599811077118px, -20.62699604034424px) translate(0px, 0px);transform: translate(16.90599811077118px, 20.62699604034424px) translate(-16.90599811077118px, -20.62699604034424px) translate(0px, 0px);}56.67%{-webkit-transform: translate(16.90599811077118px, 20.62699604034424px) translate(-16.90599811077118px, -20.62699604034424px) translate(10px, 0px);transform: translate(16.90599811077118px, 20.62699604034424px) translate(-16.90599811077118px, -20.62699604034424px) translate(10px, 0px);}100%{-webkit-transform: translate(16.90599811077118px, 20.62699604034424px) translate(-16.90599811077118px, -20.62699604034424px) translate(0px, 0px);transform: translate(16.90599811077118px, 20.62699604034424px) translate(-16.90599811077118px, -20.62699604034424px) translate(0px, 0px);}}#el_K3cI-AKnn *{-webkit-animation-duration: 2s;animation-duration: 2s;-webkit-animation-iteration-count: infinite;animation-iteration-count: infinite;-webkit-animation-timing-function: cubic-bezier(0, 0, 1, 1);animation-timing-function: cubic-bezier(0, 0, 1, 1);}#el_Tv77LaqxOY{fill: #FBD490;}#el_vOQejrOIPf{fill: #D0E8F9;}#el_y8Q_kYUc3A{fill: #ABCADD;}#el_7TABgpZ_6Q{fill: #ABCADD;}#el_k6y7r94ZVN{fill: #ABCADD;}#el_fw6nAISiE3_an_FcWIeYqS5{-webkit-animation-fill-mode: backwards;animation-fill-mode: backwards;-webkit-transform: translate(16.90599811077118px, 20.62699604034424px) translate(-16.90599811077118px, -20.62699604034424px) translate(0px, 0px);transform: translate(16.90599811077118px, 20.62699604034424px) translate(-16.90599811077118px, -20.62699604034424px) translate(0px, 0px);-webkit-animation-name: kf_el_fw6nAISiE3_an_FcWIeYqS5;animation-name: kf_el_fw6nAISiE3_an_FcWIeYqS5;-webkit-animation-timing-function: cubic-bezier(0.42, 0, 0.58, 1);animation-timing-function: cubic-bezier(0.42, 0, 0.58, 1);}#el_vOQejrOIPf_an_USmHGaQmA{-webkit-animation-fill-mode: backwards;animation-fill-mode: backwards;-webkit-transform: translate(31.00163745880127px, 31.464998245239258px) translate(-31.00163745880127px, -31.464998245239258px) translate(0px, 0px);transform: translate(31.00163745880127px, 31.464998245239258px) translate(-31.00163745880127px, -31.464998245239258px) translate(0px, 0px);-webkit-animation-name: kf_el_vOQejrOIPf_an_USmHGaQmA;animation-name: kf_el_vOQejrOIPf_an_USmHGaQmA;-webkit-animation-timing-function: cubic-bezier(0.42, 0, 0.58, 1);animation-timing-function: cubic-bezier(0.42, 0, 0.58, 1);}#el_MPFF1xkx6X_an_3Z-gAjixn{-webkit-animation-fill-mode: backwards;animation-fill-mode: backwards;-webkit-transform: translate(30.00336194038391px, 29.783002853393555px) translate(-30.00336194038391px, -29.783002853393555px) translate(0px, 0px);transform: translate(30.00336194038391px, 29.783002853393555px) translate(-30.00336194038391px, -29.783002853393555px) translate(0px, 0px);-webkit-animation-name: kf_el_MPFF1xkx6X_an_3Z-gAjixn;animation-name: kf_el_MPFF1xkx6X_an_3Z-gAjixn;-webkit-animation-timing-function: cubic-bezier(0.42, 0, 0.58, 1);animation-timing-function: cubic-bezier(0.42, 0, 0.58, 1);}#el_lGteSrGwFx_an_XzsYgnPbV{-webkit-animation-fill-mode: backwards;animation-fill-mode: backwards;-webkit-transform: translate(31.00299835205078px, 47.705997467041016px) translate(-31.00299835205078px, -47.705997467041016px) translate(0px, 0px);transform: translate(31.00299835205078px, 47.705997467041016px) translate(-31.00299835205078px, -47.705997467041016px) translate(0px, 0px);-webkit-animation-name: kf_el_lGteSrGwFx_an_XzsYgnPbV;animation-name: kf_el_lGteSrGwFx_an_XzsYgnPbV;-webkit-animation-timing-function: cubic-bezier(0.42, 0, 0.58, 1);animation-timing-function: cubic-bezier(0.42, 0, 0.58, 1);}#el_k6y7r94ZVN_an_5UPxG8GUj{-webkit-animation-fill-mode: backwards;animation-fill-mode: backwards;-webkit-transform: translate(49.45800018310547px, 39.29399871826172px) translate(-49.45800018310547px, -39.29399871826172px) translate(0px, 0px);transform: translate(49.45800018310547px, 39.29399871826172px) translate(-49.45800018310547px, -39.29399871826172px) translate(0px, 0px);-webkit-animation-name: kf_el_k6y7r94ZVN_an_5UPxG8GUj;animation-name: kf_el_k6y7r94ZVN_an_5UPxG8GUj;-webkit-animation-timing-function: cubic-bezier(0.42, 0, 0.58, 1);animation-timing-function: cubic-bezier(0.42, 0, 0.58, 1);}</style>
<g id="el_fw6nAISiE3_an_FcWIeYqS5" data-animator-group="true" data-animator-type="0"><g id="el_fw6nAISiE3">
	<path d="M11.305,31.426c1.124,0,2.205,0.181,3.221,0.508c-0.446-2.027,0.004-4.231,1.426-5.958&#10;&#9;&#9;c1.872-2.273,4.878-3.063,7.523-2.224l0.012,0.004c0.816-2.055,2.586-3.693,4.902-4.238c0.824-0.194,1.646-0.225,2.441-0.129&#10;&#9;&#9;c-0.007-0.155-0.023-0.307-0.023-0.464c0-2.418,0.825-4.638,2.198-6.412c-3.071-3.381-7.372-5.624-12.202-6.012&#10;&#9;&#9;c-0.041,8.801-7.185,15.924-15.996,15.924c-1.291,0-2.539-0.169-3.742-0.458c-0.156,0.965-0.258,1.949-0.258,2.958&#10;&#9;&#9;c0,3.615,1.053,6.978,2.846,9.828C5.567,32.71,8.283,31.426,11.305,31.426z" id="el_Tv77LaqxOY"/>
</g></g>
<g id="el_vOQejrOIPf_an_USmHGaQmA" data-animator-group="true" data-animator-type="0"><path d="M59.979,25.502h-0.081c0.035,0.304,0.059,0.611,0.059,0.925c0,0.553-0.447,1-1,1s-1-0.447-1-1&#10;&#9;c0-3.309-2.691-6-6-6s-6,2.691-6,6c0,0.553-0.447,1-1,1s-1-0.447-1-1c0-4.064,3.049-7.423,6.978-7.927&#10;&#9;c-0.226-5.039-4.384-9.073-9.478-9.073c-5.111,0-9.281,4.06-9.481,9.123c0.829,0.196,1.632,0.52,2.378,0.981&#10;&#9;c1.816,1.125,3.086,2.89,3.576,4.97c0.126,0.538-0.207,1.076-0.744,1.203c-0.538,0.121-1.076-0.207-1.203-0.744&#10;&#9;c-0.758-3.222-3.999-5.226-7.214-4.467c-3.221,0.758-5.225,3.994-4.467,7.215c0.126,0.537-0.207,1.075-0.745,1.202&#10;&#9;c-0.076,0.018-0.153,0.026-0.229,0.026c-0.453,0-0.864-0.311-0.973-0.771c-0.294-1.251-0.268-2.502,0.012-3.674&#10;&#9;c-2.058-0.301-4.137,0.476-5.493,2.122c-1.258,1.529-1.625,3.498-1.175,5.285c0.001,0.012,0.007,0.022,0.008,0.034&#10;&#9;c0.306,1.186,0.97,2.29,1.985,3.127c0.426,0.352,0.487,0.981,0.137,1.408c-0.198,0.24-0.484,0.364-0.773,0.364&#10;&#9;c-0.224,0-0.448-0.074-0.635-0.228c-1.217-1.002-2.088-2.311-2.546-3.781c-4.043-1.054-8.294,0.647-10.49,4.262&#10;&#9;c-1.317,2.168-1.712,4.72-1.11,7.185c0.602,2.466,2.127,4.549,4.296,5.867c0.472,0.287,0.622,0.901,0.335,1.374&#10;&#9;c-0.188,0.31-0.518,0.48-0.855,0.48c-0.133,0-0.265-0.036-0.392-0.091c1.58,0.936,3.399,1.509,5.344,1.593l8.209,0.003&#10;&#9;c5.307-0.085,9.853-3.36,11.791-7.992c1.963,4.693,6.603,8,12,8c9.374,0,17-7.626,17-17v-10L59.979,25.502z" id="el_vOQejrOIPf"/></g>
<g id="el_MPFF1xkx6X_an_3Z-gAjixn" data-animator-group="true" data-animator-type="0"><g id="el_MPFF1xkx6X">
	<path d="M52.936,18.568c-0.231-6.139-5.284-11.066-11.478-11.066c-6.142,0-11.16,4.844-11.47,10.91&#10;&#9;&#9;c-0.558,0.012-1.119,0.078-1.676,0.209c-2.336,0.55-4.185,2.082-5.229,4.052c-2.882-0.585-5.848,0.433-7.75,2.742&#10;&#9;&#9;c-1.251,1.52-1.879,3.408-1.81,5.359c-4.63-0.834-9.34,1.224-11.844,5.344c-1.596,2.625-2.073,5.714-1.345,8.698&#10;&#9;&#9;s2.575,5.506,5.2,7.102c0.162,0.099,0.342,0.146,0.519,0.146c0.338,0,0.667-0.171,0.855-0.48c0.287-0.473,0.137-1.087-0.335-1.374&#10;&#9;&#9;c-2.169-1.318-3.694-3.401-4.296-5.867c-0.602-2.465-0.207-5.017,1.11-7.185c2.196-3.614,6.447-5.315,10.49-4.262&#10;&#9;&#9;c0.458,1.471,1.33,2.779,2.546,3.781c0.187,0.153,0.411,0.228,0.635,0.228c0.289,0,0.575-0.124,0.773-0.364&#10;&#9;&#9;c0.351-0.427,0.289-1.057-0.137-1.408c-1.016-0.836-1.679-1.941-1.985-3.127c-0.001-0.012-0.007-0.022-0.008-0.034&#10;&#9;&#9;c-0.45-1.787-0.083-3.756,1.175-5.285c1.356-1.646,3.435-2.423,5.493-2.122c-0.28,1.173-0.307,2.423-0.012,3.674&#10;&#9;&#9;c0.108,0.461,0.52,0.771,0.973,0.771c0.076,0,0.153-0.009,0.229-0.026c0.538-0.127,0.871-0.665,0.745-1.202&#10;&#9;&#9;c-0.758-3.221,1.246-6.457,4.467-7.215c3.215-0.759,6.456,1.245,7.214,4.467c0.127,0.537,0.665,0.865,1.203,0.744&#10;&#9;&#9;c0.537-0.127,0.87-0.665,0.744-1.203c-0.49-2.08-1.76-3.845-3.576-4.97c-0.746-0.462-1.549-0.785-2.378-0.981&#10;&#9;&#9;c0.2-5.063,4.37-9.123,9.481-9.123c5.094,0,9.253,4.033,9.478,9.073c-3.929,0.504-6.978,3.863-6.978,7.927c0,0.553,0.447,1,1,1&#10;&#9;&#9;s1-0.447,1-1c0-3.309,2.691-6,6-6s6.046,2.691,6.046,6c0,0.028,0,1.327,0,3c0,0.552,0.448,1,1,1s1-0.448,1-1v-3&#10;&#9;&#9;C60.003,22.422,56.886,19.052,52.936,18.568z" id="el_y8Q_kYUc3A"/>
</g></g>
<g id="el_lGteSrGwFx_an_XzsYgnPbV" data-animator-group="true" data-animator-type="0"><g id="el_lGteSrGwFx">
	<path d="M43.003,53.502c-4.973,0-9.491-2.608-12-6.789c-2.509,4.181-7.027,6.789-12,6.789&#10;&#9;&#9;c-0.552,0-1-0.447-1-1s0.448-1,1-1c4.853,0,9.201-2.899,11.078-7.386l0.922-2.206l0.922,2.206&#10;&#9;&#9;c1.876,4.486,6.225,7.386,11.078,7.386c0.552,0,1,0.447,1,1S43.556,53.502,43.003,53.502z" id="el_7TABgpZ_6Q"/>
</g></g>
<g id="el_k6y7r94ZVN_an_5UPxG8GUj" data-animator-group="true" data-animator-type="0"><path d="M54.901,39.376c-0.458-3.979-3.843-7.082-7.943-7.082c-4.411,0-8,3.589-8,8c0,0.552,0.448,1,1,1&#10;&#9;s1-0.448,1-1c0-3.309,2.691-6,6-6c3.003,0,5.49,2.219,5.925,5.102c-2.797,0.509-4.925,2.957-4.925,5.898c0,0.552,0.448,1,1,1&#10;&#9;s1-0.448,1-1c0-2.206,1.794-4,4-4s4,1.794,4,4c0,0.552,0.448,1,1,1s1-0.448,1-1C59.958,42.308,57.762,39.831,54.901,39.376z" id="el_k6y7r94ZVN"/></g>
<g id="el_33KmTpVCML">
</g>
<g id="el_c9iqj2Ywln">
</g>
<g id="el_C9dr6Af5uw">
</g>
<g id="el_NSrhuna9S5">
</g>
<g id="el_efg3uUNngk">
</g>
<g id="el_PA6AZXdz28">
</g>
<g id="el_bllWcQrQ2l">
</g>
<g id="el_OwVyQt5EZvU">
</g>
<g id="el_D-_S2Fhr_7y">
</g>
<g id="el_WYZVl4zJIx5">
</g>
<g id="el_7PeV6MecNuI">
</g>
<g id="el_n7GMpXHj2WX">
</g>
<g id="el_sZZtqjX3l8Y">
</g>
<g id="el_mFJAGleOEn6">
</g>
<g id="el_JrPD6HCwW5H">
</g>
</svg>