<svg version="1.1" id="el_lgCjVVWos" xmlns="http://www.w3.org/2000/svg" xmlns:xlink="http://www.w3.org/1999/xlink" x="0px" y="0px" viewBox="0 0 60 60" style="enable-background:new 0 0 60.003 60.003;" xml:space="preserve"><style>@-webkit-keyframes kf_el_705XAxr62i_an_RVTgkycqQ{0%{-webkit-transform: translate(42.99999809265137px, 52.00150108337402px) translate(-42.99999809265137px, -52.00150108337402px) translate(0px, 0px);transform: translate(42.99999809265137px, 52.00150108337402px) translate(-42.99999809265137px, -52.00150108337402px) translate(0px, 0px);}60%{-webkit-transform: translate(42.99999809265137px, 52.00150108337402px) translate(-42.99999809265137px, -52.00150108337402px) translate(0px, 70px);transform: translate(42.99999809265137px, 52.00150108337402px) translate(-42.99999809265137px, -52.00150108337402px) translate(0px, 70px);}100%{-webkit-transform: translate(42.99999809265137px, 52.00150108337402px) translate(-42.99999809265137px, -52.00150108337402px) translate(0px, 70px);transform: translate(42.99999809265137px, 52.00150108337402px) translate(-42.99999809265137px, -52.00150108337402px) translate(0px, 70px);}}@keyframes kf_el_705XAxr62i_an_RVTgkycqQ{0%{-webkit-transform: translate(42.99999809265137px, 52.00150108337402px) translate(-42.99999809265137px, -52.00150108337402px) translate(0px, 0px);transform: translate(42.99999809265137px, 52.00150108337402px) translate(-42.99999809265137px, -52.00150108337402px) translate(0px, 0px);}60%{-webkit-transform: translate(42.99999809265137px, 52.00150108337402px) translate(-42.99999809265137px, -52.00150108337402px) translate(0px, 70px);transform: translate(42.99999809265137px, 52.00150108337402px) translate(-42.99999809265137px, -52.00150108337402px) translate(0px, 70px);}100%{-webkit-transform: translate(42.99999809265137px, 52.00150108337402px) translate(-42.99999809265137px, -52.00150108337402px) translate(0px, 70px);transform: translate(42.99999809265137px, 52.00150108337402px) translate(-42.99999809265137px, -52.00150108337402px) translate(0px, 70px);}}@-webkit-keyframes kf_el_705XAxr62i_an_HnX_JHpl4{0%{opacity: 1;}60%{opacity: 0;}100%{opacity: 0;}}@keyframes kf_el_705XAxr62i_an_HnX_JHpl4{0%{opacity: 1;}60%{opacity: 0;}100%{opacity: 0;}}@-webkit-keyframes kf_el_zYwQ8wA1vD_an_weaBPj9HqI{0%{opacity: 1;}75%{opacity: 0;}100%{opacity: 0;}}@keyframes kf_el_zYwQ8wA1vD_an_weaBPj9HqI{0%{opacity: 1;}75%{opacity: 0;}100%{opacity: 0;}}@-webkit-keyframes kf_el_zYwQ8wA1vD_an_soxwAZw4z{0%{-webkit-transform: translate(32px, 38.97050094604492px) translate(-32px, -38.97050094604492px) translate(0px, 0px);transform: translate(32px, 38.97050094604492px) translate(-32px, -38.97050094604492px) translate(0px, 0px);}75%{-webkit-transform: translate(32px, 38.97050094604492px) translate(-32px, -38.97050094604492px) translate(0px, 60px);transform: translate(32px, 38.97050094604492px) translate(-32px, -38.97050094604492px) translate(0px, 60px);}100%{-webkit-transform: translate(32px, 38.97050094604492px) translate(-32px, -38.97050094604492px) translate(0px, 60px);transform: translate(32px, 38.97050094604492px) translate(-32px, -38.97050094604492px) translate(0px, 60px);}}@keyframes kf_el_zYwQ8wA1vD_an_soxwAZw4z{0%{-webkit-transform: translate(32px, 38.97050094604492px) translate(-32px, -38.97050094604492px) translate(0px, 0px);transform: translate(32px, 38.97050094604492px) translate(-32px, -38.97050094604492px) translate(0px, 0px);}75%{-webkit-transform: translate(32px, 38.97050094604492px) translate(-32px, -38.97050094604492px) translate(0px, 60px);transform: translate(32px, 38.97050094604492px) translate(-32px, -38.97050094604492px) translate(0px, 60px);}100%{-webkit-transform: translate(32px, 38.97050094604492px) translate(-32px, -38.97050094604492px) translate(0px, 60px);transform: translate(32px, 38.97050094604492px) translate(-32px, -38.97050094604492px) translate(0px, 60px);}}@-webkit-keyframes kf_el_ybyKZLTIaz_an_Ge9CwDJTfr{0%{opacity: 1;}86.67%{opacity: 0;}100%{opacity: 0;}}@keyframes kf_el_ybyKZLTIaz_an_Ge9CwDJTfr{0%{opacity: 1;}86.67%{opacity: 0;}100%{opacity: 0;}}@-webkit-keyframes kf_el_ybyKZLTIaz_an_QnZ43nuBL{0%{-webkit-transform: translate(53px, 38.97050094604492px) translate(-53px, -38.97050094604492px) translate(0px, 0px);transform: translate(53px, 38.97050094604492px) translate(-53px, -38.97050094604492px) translate(0px, 0px);}86.67%{-webkit-transform: translate(53px, 38.97050094604492px) translate(-53px, -38.97050094604492px) translate(0px, 50px);transform: translate(53px, 38.97050094604492px) translate(-53px, -38.97050094604492px) translate(0px, 50px);}100%{-webkit-transform: translate(53px, 38.97050094604492px) translate(-53px, -38.97050094604492px) translate(0px, 50px);transform: translate(53px, 38.97050094604492px) translate(-53px, -38.97050094604492px) translate(0px, 50px);}}@keyframes kf_el_ybyKZLTIaz_an_QnZ43nuBL{0%{-webkit-transform: translate(53px, 38.97050094604492px) translate(-53px, -38.97050094604492px) translate(0px, 0px);transform: translate(53px, 38.97050094604492px) translate(-53px, -38.97050094604492px) translate(0px, 0px);}86.67%{-webkit-transform: translate(53px, 38.97050094604492px) translate(-53px, -38.97050094604492px) translate(0px, 50px);transform: translate(53px, 38.97050094604492px) translate(-53px, -38.97050094604492px) translate(0px, 50px);}100%{-webkit-transform: translate(53px, 38.97050094604492px) translate(-53px, -38.97050094604492px) translate(0px, 50px);transform: translate(53px, 38.97050094604492px) translate(-53px, -38.97050094604492px) translate(0px, 50px);}}@-webkit-keyframes kf_el_HDxgvOiEz5_an_CDuTgCvTZ{0%{-webkit-transform: translate(0.0017235279083251953px, 6.00200080871582px) translate(-0.0017235279083251953px, -6.00200080871582px) translate(0px, 0px);transform: translate(0.0017235279083251953px, 6.00200080871582px) translate(-0.0017235279083251953px, -6.00200080871582px) translate(0px, 0px);}50%{-webkit-transform: translate(0.0017235279083251953px, 6.00200080871582px) translate(-0.0017235279083251953px, -6.00200080871582px) translate(10px, 0px);transform: translate(0.0017235279083251953px, 6.00200080871582px) translate(-0.0017235279083251953px, -6.00200080871582px) translate(10px, 0px);}100%{-webkit-transform: translate(0.0017235279083251953px, 6.00200080871582px) translate(-0.0017235279083251953px, -6.00200080871582px) translate(0px, 0px);transform: translate(0.0017235279083251953px, 6.00200080871582px) translate(-0.0017235279083251953px, -6.00200080871582px) translate(0px, 0px);}}@keyframes kf_el_HDxgvOiEz5_an_CDuTgCvTZ{0%{-webkit-transform: translate(0.0017235279083251953px, 6.00200080871582px) translate(-0.0017235279083251953px, -6.00200080871582px) translate(0px, 0px);transform: translate(0.0017235279083251953px, 6.00200080871582px) translate(-0.0017235279083251953px, -6.00200080871582px) translate(0px, 0px);}50%{-webkit-transform: translate(0.0017235279083251953px, 6.00200080871582px) translate(-0.0017235279083251953px, -6.00200080871582px) translate(10px, 0px);transform: translate(0.0017235279083251953px, 6.00200080871582px) translate(-0.0017235279083251953px, -6.00200080871582px) translate(10px, 0px);}100%{-webkit-transform: translate(0.0017235279083251953px, 6.00200080871582px) translate(-0.0017235279083251953px, -6.00200080871582px) translate(0px, 0px);transform: translate(0.0017235279083251953px, 6.00200080871582px) translate(-0.0017235279083251953px, -6.00200080871582px) translate(0px, 0px);}}@-webkit-keyframes kf_el_ebrf1cqSwZ_an_Y_-WSg5LE{0%{-webkit-transform: translate(31.00163745880127px, 29.964998245239258px) translate(-31.00163745880127px, -29.964998245239258px) translate(0px, 0px);transform: translate(31.00163745880127px, 29.964998245239258px) translate(-31.00163745880127px, -29.964998245239258px) translate(0px, 0px);}50%{-webkit-transform: translate(31.00163745880127px, 29.964998245239258px) translate(-31.00163745880127px, -29.964998245239258px) translate(10px, 0px);transform: translate(31.00163745880127px, 29.964998245239258px) translate(-31.00163745880127px, -29.964998245239258px) translate(10px, 0px);}100%{-webkit-transform: translate(31.00163745880127px, 29.964998245239258px) translate(-31.00163745880127px, -29.964998245239258px) translate(0px, 0px);transform: translate(31.00163745880127px, 29.964998245239258px) translate(-31.00163745880127px, -29.964998245239258px) translate(0px, 0px);}}@keyframes kf_el_ebrf1cqSwZ_an_Y_-WSg5LE{0%{-webkit-transform: translate(31.00163745880127px, 29.964998245239258px) translate(-31.00163745880127px, -29.964998245239258px) translate(0px, 0px);transform: translate(31.00163745880127px, 29.964998245239258px) translate(-31.00163745880127px, -29.964998245239258px) translate(0px, 0px);}50%{-webkit-transform: translate(31.00163745880127px, 29.964998245239258px) translate(-31.00163745880127px, -29.964998245239258px) translate(10px, 0px);transform: translate(31.00163745880127px, 29.964998245239258px) translate(-31.00163745880127px, -29.964998245239258px) translate(10px, 0px);}100%{-webkit-transform: translate(31.00163745880127px, 29.964998245239258px) translate(-31.00163745880127px, -29.964998245239258px) translate(0px, 0px);transform: translate(31.00163745880127px, 29.964998245239258px) translate(-31.00163745880127px, -29.964998245239258px) translate(0px, 0px);}}@-webkit-keyframes kf_el_AaPJ7RWOio_an_lfp5AULZB{0%{-webkit-transform: translate(8.004000186920166px, 9.001999378204346px) scale(0, 0) translate(-8.004000186920166px, -9.001999378204346px);transform: translate(8.004000186920166px, 9.001999378204346px) scale(0, 0) translate(-8.004000186920166px, -9.001999378204346px);}55.00%{-webkit-transform: translate(8.004000186920166px, 9.001999378204346px) scale(1.1, 1.1) translate(-8.004000186920166px, -9.001999378204346px);transform: translate(8.004000186920166px, 9.001999378204346px) scale(1.1, 1.1) translate(-8.004000186920166px, -9.001999378204346px);}100%{-webkit-transform: translate(8.004000186920166px, 9.001999378204346px) scale(0, 0) translate(-8.004000186920166px, -9.001999378204346px);transform: translate(8.004000186920166px, 9.001999378204346px) scale(0, 0) translate(-8.004000186920166px, -9.001999378204346px);}}@keyframes kf_el_AaPJ7RWOio_an_lfp5AULZB{0%{-webkit-transform: translate(8.004000186920166px, 9.001999378204346px) scale(0, 0) translate(-8.004000186920166px, -9.001999378204346px);transform: translate(8.004000186920166px, 9.001999378204346px) scale(0, 0) translate(-8.004000186920166px, -9.001999378204346px);}55.00%{-webkit-transform: translate(8.004000186920166px, 9.001999378204346px) scale(1.1, 1.1) translate(-8.004000186920166px, -9.001999378204346px);transform: translate(8.004000186920166px, 9.001999378204346px) scale(1.1, 1.1) translate(-8.004000186920166px, -9.001999378204346px);}100%{-webkit-transform: translate(8.004000186920166px, 9.001999378204346px) scale(0, 0) translate(-8.004000186920166px, -9.001999378204346px);transform: translate(8.004000186920166px, 9.001999378204346px) scale(0, 0) translate(-8.004000186920166px, -9.001999378204346px);}}@-webkit-keyframes kf_el_AaPJ7RWOio_an_2EEBiMchd{0%{opacity: 0;}55.00%{opacity: 1;}100%{opacity: 0;}}@keyframes kf_el_AaPJ7RWOio_an_2EEBiMchd{0%{opacity: 0;}55.00%{opacity: 1;}100%{opacity: 0;}}@-webkit-keyframes kf_el_beAVGa20yu_an_0-uNnJdce{0%{-webkit-transform: translate(7.002999782562256px, 25.001998901367188px) scale(0, 0) translate(-7.002999782562256px, -25.001998901367188px);transform: translate(7.002999782562256px, 25.001998901367188px) scale(0, 0) translate(-7.002999782562256px, -25.001998901367188px);}40%{-webkit-transform: translate(7.002999782562256px, 25.001998901367188px) scale(1.1, 1.1) translate(-7.002999782562256px, -25.001998901367188px);transform: translate(7.002999782562256px, 25.001998901367188px) scale(1.1, 1.1) translate(-7.002999782562256px, -25.001998901367188px);}100%{-webkit-transform: translate(7.002999782562256px, 25.001998901367188px) scale(0, 0) translate(-7.002999782562256px, -25.001998901367188px);transform: translate(7.002999782562256px, 25.001998901367188px) scale(0, 0) translate(-7.002999782562256px, -25.001998901367188px);}}@keyframes kf_el_beAVGa20yu_an_0-uNnJdce{0%{-webkit-transform: translate(7.002999782562256px, 25.001998901367188px) scale(0, 0) translate(-7.002999782562256px, -25.001998901367188px);transform: translate(7.002999782562256px, 25.001998901367188px) scale(0, 0) translate(-7.002999782562256px, -25.001998901367188px);}40%{-webkit-transform: translate(7.002999782562256px, 25.001998901367188px) scale(1.1, 1.1) translate(-7.002999782562256px, -25.001998901367188px);transform: translate(7.002999782562256px, 25.001998901367188px) scale(1.1, 1.1) translate(-7.002999782562256px, -25.001998901367188px);}100%{-webkit-transform: translate(7.002999782562256px, 25.001998901367188px) scale(0, 0) translate(-7.002999782562256px, -25.001998901367188px);transform: translate(7.002999782562256px, 25.001998901367188px) scale(0, 0) translate(-7.002999782562256px, -25.001998901367188px);}}@-webkit-keyframes kf_el_beAVGa20yu_an_1A6oRZ5D9{0%{opacity: 0;}40%{opacity: 1;}100%{opacity: 0;}}@keyframes kf_el_beAVGa20yu_an_1A6oRZ5D9{0%{opacity: 0;}40%{opacity: 1;}100%{opacity: 0;}}@-webkit-keyframes kf_el_mvvAKlMfsO_an_cejXP4c-c{0%{-webkit-transform: translate(23.00400161743164px, 13.00200080871582px) scale(0, 0) translate(-23.00400161743164px, -13.00200080871582px);transform: translate(23.00400161743164px, 13.00200080871582px) scale(0, 0) translate(-23.00400161743164px, -13.00200080871582px);}70%{-webkit-transform: translate(23.00400161743164px, 13.00200080871582px) scale(1.1, 1.1) translate(-23.00400161743164px, -13.00200080871582px);transform: translate(23.00400161743164px, 13.00200080871582px) scale(1.1, 1.1) translate(-23.00400161743164px, -13.00200080871582px);}100%{-webkit-transform: translate(23.00400161743164px, 13.00200080871582px) scale(0, 0) translate(-23.00400161743164px, -13.00200080871582px);transform: translate(23.00400161743164px, 13.00200080871582px) scale(0, 0) translate(-23.00400161743164px, -13.00200080871582px);}}@keyframes kf_el_mvvAKlMfsO_an_cejXP4c-c{0%{-webkit-transform: translate(23.00400161743164px, 13.00200080871582px) scale(0, 0) translate(-23.00400161743164px, -13.00200080871582px);transform: translate(23.00400161743164px, 13.00200080871582px) scale(0, 0) translate(-23.00400161743164px, -13.00200080871582px);}70%{-webkit-transform: translate(23.00400161743164px, 13.00200080871582px) scale(1.1, 1.1) translate(-23.00400161743164px, -13.00200080871582px);transform: translate(23.00400161743164px, 13.00200080871582px) scale(1.1, 1.1) translate(-23.00400161743164px, -13.00200080871582px);}100%{-webkit-transform: translate(23.00400161743164px, 13.00200080871582px) scale(0, 0) translate(-23.00400161743164px, -13.00200080871582px);transform: translate(23.00400161743164px, 13.00200080871582px) scale(0, 0) translate(-23.00400161743164px, -13.00200080871582px);}}@-webkit-keyframes kf_el_mvvAKlMfsO_an_uum9LhABB{0%{opacity: 0;}70%{opacity: 1;}100%{opacity: 0;}}@keyframes kf_el_mvvAKlMfsO_an_uum9LhABB{0%{opacity: 0;}70%{opacity: 1;}100%{opacity: 0;}}#el_lgCjVVWos *{-webkit-animation-duration: 2s;animation-duration: 2s;-webkit-animation-iteration-count: infinite;animation-iteration-count: infinite;-webkit-animation-timing-function: cubic-bezier(0, 0, 1, 1);animation-timing-function: cubic-bezier(0, 0, 1, 1);}#el_mvvAKlMfsO{fill: #FBD490;stroke: #F0C419;stroke-width: 2;stroke-miterlimit: 10;-webkit-animation-fill-mode: backwards;animation-fill-mode: backwards;opacity: 0;-webkit-animation-name: kf_el_mvvAKlMfsO_an_uum9LhABB;animation-name: kf_el_mvvAKlMfsO_an_uum9LhABB;-webkit-animation-timing-function: cubic-bezier(0, 0, 1, 1);animation-timing-function: cubic-bezier(0, 0, 1, 1);}#el_beAVGa20yu{fill: #FBD490;stroke: #F0C419;stroke-width: 2;stroke-miterlimit: 10;-webkit-animation-fill-mode: backwards;animation-fill-mode: backwards;opacity: 0;-webkit-animation-name: kf_el_beAVGa20yu_an_1A6oRZ5D9;animation-name: kf_el_beAVGa20yu_an_1A6oRZ5D9;-webkit-animation-timing-function: cubic-bezier(0, 0, 1, 1);animation-timing-function: cubic-bezier(0, 0, 1, 1);}#el_AaPJ7RWOio{fill: #FBD490;stroke: #F0C419;stroke-width: 2;stroke-miterlimit: 10;-webkit-animation-fill-mode: backwards;animation-fill-mode: backwards;opacity: 0;-webkit-animation-name: kf_el_AaPJ7RWOio_an_2EEBiMchd;animation-name: kf_el_AaPJ7RWOio_an_2EEBiMchd;-webkit-animation-timing-function: cubic-bezier(0, 0, 1, 1);animation-timing-function: cubic-bezier(0, 0, 1, 1);}#el_ebrf1cqSwZ{fill: #D0E8F9;}#el_HDxgvOiEz5{fill: #ABCADD;}#el_ybyKZLTIaz{fill: #ABC5D3;-webkit-animation-fill-mode: backwards;animation-fill-mode: backwards;opacity: 1;-webkit-animation-name: kf_el_ybyKZLTIaz_an_Ge9CwDJTfr;animation-name: kf_el_ybyKZLTIaz_an_Ge9CwDJTfr;-webkit-animation-timing-function: cubic-bezier(0, 0, 1, 1);animation-timing-function: cubic-bezier(0, 0, 1, 1);}#el_zYwQ8wA1vD{fill: #ABC5D3;-webkit-animation-fill-mode: backwards;animation-fill-mode: backwards;opacity: 1;-webkit-animation-name: kf_el_zYwQ8wA1vD_an_weaBPj9HqI;animation-name: kf_el_zYwQ8wA1vD_an_weaBPj9HqI;-webkit-animation-timing-function: cubic-bezier(0, 0, 1, 1);animation-timing-function: cubic-bezier(0, 0, 1, 1);}#el_705XAxr62i{fill: #ABC5D3;-webkit-animation-fill-mode: backwards;animation-fill-mode: backwards;opacity: 1;-webkit-animation-name: kf_el_705XAxr62i_an_HnX_JHpl4;animation-name: kf_el_705XAxr62i_an_HnX_JHpl4;-webkit-animation-timing-function: cubic-bezier(0, 0, 1, 1);animation-timing-function: cubic-bezier(0, 0, 1, 1);}#el_oPJFAqxHtv{visibility: hidden;}#el_1lJjNsJa2l{visibility: hidden;}#el_DqPOfrhQQX{visibility: hidden;}#el_kbwHWfKMki{visibility: hidden;}#el_wVwjz3Xfjm{visibility: hidden;}#el_EMKB7lS1fAO{visibility: hidden;}#el_8CD3mdiU6pu{visibility: hidden;}#el_hyvgeeTHy8H{visibility: hidden;}#el_k6r8KKdg8MA{visibility: hidden;}#el_KxX_Qh-efn8{visibility: hidden;}#el_7I_ZPm4WZg7{visibility: hidden;}#el_vyXd9Gwku6c{visibility: hidden;}#el__UW_ZSV4-g0{visibility: hidden;}#el_RGizBAKAgpx{visibility: hidden;}#el_TodZzFSnLkw{visibility: hidden;}#el_mvvAKlMfsO_an_cejXP4c-c{-webkit-animation-fill-mode: backwards;animation-fill-mode: backwards;-webkit-transform: translate(23.00400161743164px, 13.00200080871582px) scale(0, 0) translate(-23.00400161743164px, -13.00200080871582px);transform: translate(23.00400161743164px, 13.00200080871582px) scale(0, 0) translate(-23.00400161743164px, -13.00200080871582px);-webkit-animation-name: kf_el_mvvAKlMfsO_an_cejXP4c-c;animation-name: kf_el_mvvAKlMfsO_an_cejXP4c-c;-webkit-animation-timing-function: cubic-bezier(0, 0, 1, 1);animation-timing-function: cubic-bezier(0, 0, 1, 1);}#el_beAVGa20yu_an_0-uNnJdce{-webkit-animation-fill-mode: backwards;animation-fill-mode: backwards;-webkit-transform: translate(7.002999782562256px, 25.001998901367188px) scale(0, 0) translate(-7.002999782562256px, -25.001998901367188px);transform: translate(7.002999782562256px, 25.001998901367188px) scale(0, 0) translate(-7.002999782562256px, -25.001998901367188px);-webkit-animation-name: kf_el_beAVGa20yu_an_0-uNnJdce;animation-name: kf_el_beAVGa20yu_an_0-uNnJdce;-webkit-animation-timing-function: cubic-bezier(0, 0, 1, 1);animation-timing-function: cubic-bezier(0, 0, 1, 1);}#el_AaPJ7RWOio_an_lfp5AULZB{-webkit-animation-fill-mode: backwards;animation-fill-mode: backwards;-webkit-transform: translate(8.004000186920166px, 9.001999378204346px) scale(0, 0) translate(-8.004000186920166px, -9.001999378204346px);transform: translate(8.004000186920166px, 9.001999378204346px) scale(0, 0) translate(-8.004000186920166px, -9.001999378204346px);-webkit-animation-name: kf_el_AaPJ7RWOio_an_lfp5AULZB;animation-name: kf_el_AaPJ7RWOio_an_lfp5AULZB;-webkit-animation-timing-function: cubic-bezier(0, 0, 1, 1);animation-timing-function: cubic-bezier(0, 0, 1, 1);}#el_ebrf1cqSwZ_an_Y_-WSg5LE{-webkit-animation-fill-mode: backwards;animation-fill-mode: backwards;-webkit-transform: translate(31.00163745880127px, 29.964998245239258px) translate(-31.00163745880127px, -29.964998245239258px) translate(0px, 0px);transform: translate(31.00163745880127px, 29.964998245239258px) translate(-31.00163745880127px, -29.964998245239258px) translate(0px, 0px);-webkit-animation-name: kf_el_ebrf1cqSwZ_an_Y_-WSg5LE;animation-name: kf_el_ebrf1cqSwZ_an_Y_-WSg5LE;-webkit-animation-timing-function: cubic-bezier(0, 0, 1, 1);animation-timing-function: cubic-bezier(0, 0, 1, 1);}#el_HDxgvOiEz5_an_CDuTgCvTZ{-webkit-animation-fill-mode: backwards;animation-fill-mode: backwards;-webkit-transform: translate(0.0017235279083251953px, 6.00200080871582px) translate(-0.0017235279083251953px, -6.00200080871582px) translate(0px, 0px);transform: translate(0.0017235279083251953px, 6.00200080871582px) translate(-0.0017235279083251953px, -6.00200080871582px) translate(0px, 0px);-webkit-animation-name: kf_el_HDxgvOiEz5_an_CDuTgCvTZ;animation-name: kf_el_HDxgvOiEz5_an_CDuTgCvTZ;-webkit-animation-timing-function: cubic-bezier(0, 0, 1, 1);animation-timing-function: cubic-bezier(0, 0, 1, 1);}#el_ybyKZLTIaz_an_QnZ43nuBL{-webkit-animation-fill-mode: backwards;animation-fill-mode: backwards;-webkit-transform: translate(53px, 38.97050094604492px) translate(-53px, -38.97050094604492px) translate(0px, 0px);transform: translate(53px, 38.97050094604492px) translate(-53px, -38.97050094604492px) translate(0px, 0px);-webkit-animation-name: kf_el_ybyKZLTIaz_an_QnZ43nuBL;animation-name: kf_el_ybyKZLTIaz_an_QnZ43nuBL;-webkit-animation-timing-function: cubic-bezier(0, 0, 1, 1);animation-timing-function: cubic-bezier(0, 0, 1, 1);}#el_zYwQ8wA1vD_an_soxwAZw4z{-webkit-animation-fill-mode: backwards;animation-fill-mode: backwards;-webkit-transform: translate(32px, 38.97050094604492px) translate(-32px, -38.97050094604492px) translate(0px, 0px);transform: translate(32px, 38.97050094604492px) translate(-32px, -38.97050094604492px) translate(0px, 0px);-webkit-animation-name: kf_el_zYwQ8wA1vD_an_soxwAZw4z;animation-name: kf_el_zYwQ8wA1vD_an_soxwAZw4z;-webkit-animation-timing-function: cubic-bezier(0, 0, 1, 1);animation-timing-function: cubic-bezier(0, 0, 1, 1);}#el_705XAxr62i_an_RVTgkycqQ{-webkit-animation-fill-mode: backwards;animation-fill-mode: backwards;-webkit-transform: translate(42.99999809265137px, 52.00150108337402px) translate(-42.99999809265137px, -52.00150108337402px) translate(0px, 0px);transform: translate(42.99999809265137px, 52.00150108337402px) translate(-42.99999809265137px, -52.00150108337402px) translate(0px, 0px);-webkit-animation-name: kf_el_705XAxr62i_an_RVTgkycqQ;animation-name: kf_el_705XAxr62i_an_RVTgkycqQ;-webkit-animation-timing-function: cubic-bezier(0, 0, 1, 1);animation-timing-function: cubic-bezier(0, 0, 1, 1);}</style>
<g id="el_mvvAKlMfsO_an_cejXP4c-c" data-animator-group="true" data-animator-type="2"><path d="M18.069,13.071&#10;&#9;c2.503,0.387,4.478,2.362,4.866,4.866c0.013,0.087,0.125,0.087,0.138,0c0.387-2.503,2.362-4.478,4.866-4.866&#10;&#9;c0.087-0.013,0.087-0.125,0-0.138c-2.503-0.387-4.478-2.362-4.866-4.866c-0.013-0.087-0.125-0.087-0.138,0&#10;&#9;c-0.387,2.503-2.362,4.478-4.866,4.866C17.982,12.946,17.982,13.057,18.069,13.071z" id="el_mvvAKlMfsO"/></g>
<g id="el_beAVGa20yu_an_0-uNnJdce" data-animator-group="true" data-animator-type="2"><path d="M3.056,25.057&#10;&#9;c2.003,0.31,3.583,1.89,3.892,3.892c0.011,0.07,0.1,0.07,0.11,0c0.31-2.003,1.89-3.583,3.892-3.892c0.07-0.011,0.07-0.1,0-0.11&#10;&#9;c-2.003-0.31-3.583-1.89-3.892-3.892c-0.011-0.07-0.1-0.07-0.11,0c-0.31,2.003-1.89,3.583-3.892,3.892&#10;&#9;C2.986,24.957,2.986,25.046,3.056,25.057z" id="el_beAVGa20yu"/></g>
<g id="el_AaPJ7RWOio_an_lfp5AULZB" data-animator-group="true" data-animator-type="2"><path d="M2.082,9.085&#10;&#9;c3.004,0.465,5.374,2.835,5.839,5.839c0.016,0.105,0.149,0.105,0.166,0c0.465-3.004,2.835-5.374,5.839-5.839&#10;&#9;c0.105-0.016,0.105-0.149,0-0.166C10.921,8.454,8.551,6.084,8.086,3.08c-0.016-0.105-0.149-0.105-0.166,0&#10;&#9;C7.456,6.084,5.086,8.454,2.082,8.919C1.977,8.935,1.977,9.068,2.082,9.085z" id="el_AaPJ7RWOio"/></g>
<g id="el_ebrf1cqSwZ_an_Y_-WSg5LE" data-animator-group="true" data-animator-type="0"><path d="M59.979,24.002h-0.081c0.035,0.304,0.059,0.611,0.059,0.925c0,0.553-0.447,1-1,1s-1-0.447-1-1&#10;&#9;c0-3.309-2.691-6-6-6s-6,2.691-6,6c0,0.553-0.447,1-1,1s-1-0.447-1-1c0-4.064,3.049-7.423,6.978-7.927&#10;&#9;c-0.226-5.039-4.384-9.073-9.478-9.073c-5.111,0-9.281,4.06-9.481,9.123c0.829,0.196,1.632,0.52,2.378,0.981&#10;&#9;c1.816,1.125,3.086,2.89,3.576,4.97c0.126,0.538-0.207,1.076-0.744,1.203c-0.538,0.121-1.076-0.207-1.203-0.744&#10;&#9;c-0.758-3.222-3.999-5.226-7.214-4.467c-3.221,0.758-5.225,3.994-4.467,7.215c0.126,0.537-0.207,1.075-0.745,1.202&#10;&#9;c-0.076,0.018-0.153,0.026-0.229,0.026c-0.453,0-0.864-0.311-0.973-0.771c-0.294-1.251-0.268-2.502,0.012-3.674&#10;&#9;c-2.058-0.301-4.137,0.476-5.493,2.122c-1.258,1.529-1.625,3.498-1.175,5.285c0.001,0.012,0.007,0.022,0.008,0.034&#10;&#9;c0.306,1.186,0.97,2.29,1.985,3.127c0.426,0.352,0.487,0.981,0.137,1.408c-0.198,0.24-0.484,0.364-0.773,0.364&#10;&#9;c-0.224,0-0.448-0.074-0.635-0.228c-1.217-1.002-2.088-2.311-2.546-3.781c-4.043-1.054-8.294,0.647-10.49,4.262&#10;&#9;c-1.317,2.168-1.712,4.72-1.11,7.185c0.602,2.466,2.127,4.549,4.296,5.867c0.472,0.287,0.622,0.901,0.335,1.374&#10;&#9;c-0.188,0.31-0.518,0.48-0.855,0.48c-0.133,0-0.265-0.036-0.392-0.091c1.58,0.936,3.399,1.509,5.344,1.593l8.209,0.003&#10;&#9;c5.307-0.085,9.853-3.36,11.791-7.992c1.963,4.693,6.603,8,12,8c9.374,0,17-7.626,17-17v-10L59.979,24.002z" id="el_ebrf1cqSwZ"/></g>
<g id="el_SJhQXJQBej">
	<g id="el_HDxgvOiEz5_an_CDuTgCvTZ" data-animator-group="true" data-animator-type="0"><path d="M52.936,17.068c-0.231-6.139-5.284-11.066-11.478-11.066c-6.142,0-11.16,4.844-11.47,10.91&#10;&#9;&#9;c-0.558,0.012-1.119,0.078-1.676,0.209c-2.336,0.55-4.185,2.082-5.229,4.052c-2.882-0.585-5.848,0.433-7.75,2.742&#10;&#9;&#9;c-1.251,1.52-1.879,3.408-1.81,5.359c-4.63-0.834-9.34,1.224-11.844,5.344c-1.596,2.625-2.073,5.714-1.345,8.698&#10;&#9;&#9;s2.575,5.506,5.2,7.102c0.162,0.099,0.342,0.146,0.519,0.146c0.338,0,0.667-0.171,0.855-0.48c0.287-0.473,0.137-1.087-0.335-1.374&#10;&#9;&#9;c-2.169-1.318-3.694-3.401-4.296-5.867c-0.602-2.465-0.207-5.017,1.11-7.185c2.196-3.614,6.447-5.315,10.49-4.262&#10;&#9;&#9;c0.458,1.471,1.33,2.779,2.546,3.781c0.187,0.153,0.411,0.228,0.635,0.228c0.289,0,0.575-0.124,0.773-0.364&#10;&#9;&#9;c0.351-0.427,0.289-1.057-0.137-1.408c-1.016-0.836-1.679-1.941-1.985-3.127c-0.001-0.012-0.007-0.022-0.008-0.034&#10;&#9;&#9;c-0.45-1.787-0.083-3.756,1.175-5.285c1.356-1.646,3.435-2.423,5.493-2.122c-0.28,1.173-0.307,2.423-0.012,3.674&#10;&#9;&#9;c0.108,0.461,0.52,0.771,0.973,0.771c0.076,0,0.153-0.009,0.229-0.026c0.538-0.127,0.871-0.665,0.745-1.202&#10;&#9;&#9;c-0.758-3.221,1.246-6.457,4.467-7.215c3.215-0.759,6.456,1.245,7.214,4.467c0.127,0.537,0.665,0.865,1.203,0.744&#10;&#9;&#9;c0.537-0.127,0.87-0.665,0.744-1.203c-0.49-2.08-1.76-3.845-3.576-4.97c-0.746-0.462-1.549-0.785-2.378-0.981&#10;&#9;&#9;c0.2-5.063,4.37-9.123,9.481-9.123c5.094,0,9.253,4.033,9.478,9.073c-3.929,0.504-6.978,3.863-6.978,7.927c0,0.553,0.447,1,1,1&#10;&#9;&#9;s1-0.447,1-1c0-3.309,2.691-6,6-6s6.046,2.691,6.046,6c0,0.028,0,1.327,0,3c0,0.552,0.448,1,1,1s1-0.448,1-1v-3&#10;&#9;&#9;C60.003,20.922,56.886,17.552,52.936,17.068z" id="el_HDxgvOiEz5"/></g>
</g>
<g id="el_GGXZvRGVsd">
	<g id="el_ybyKZLTIaz_an_QnZ43nuBL" data-animator-group="true" data-animator-type="0"><path d="M57.83,40.604L55,38.97l2.83-1.634c0.479-0.276,0.642-0.888,0.366-1.366&#10;&#9;&#9;c-0.276-0.479-0.889-0.643-1.366-0.366L54,37.238V33.97c0-0.553-0.448-1-1-1s-1,0.447-1,1v3.268l-2.83-1.634&#10;&#9;&#9;c-0.48-0.276-1.09-0.113-1.366,0.366c-0.276,0.479-0.112,1.09,0.366,1.366L51,38.97l-2.83,1.634&#10;&#9;&#9;c-0.479,0.276-0.642,0.888-0.366,1.366c0.186,0.321,0.521,0.5,0.867,0.5c0.169,0,0.342-0.043,0.499-0.134L52,40.703v3.268&#10;&#9;&#9;c0,0.553,0.448,1,1,1s1-0.447,1-1v-3.268l2.83,1.634c0.158,0.091,0.33,0.134,0.499,0.134c0.346,0,0.682-0.179,0.867-0.5&#10;&#9;&#9;C58.472,41.492,58.309,40.881,57.83,40.604z" id="el_ybyKZLTIaz"/></g>
	<g id="el_zYwQ8wA1vD_an_soxwAZw4z" data-animator-group="true" data-animator-type="0"><path d="M37.196,35.97c-0.277-0.479-0.889-0.643-1.366-0.366L33,37.238V33.97c0-0.553-0.448-1-1-1&#10;&#9;&#9;c-0.552,0-1,0.447-1,1v3.268l-2.83-1.634c-0.48-0.276-1.09-0.113-1.366,0.366c-0.276,0.479-0.112,1.09,0.366,1.366L30,38.97&#10;&#9;&#9;l-2.83,1.634c-0.479,0.276-0.642,0.888-0.366,1.366c0.186,0.321,0.521,0.5,0.867,0.5c0.169,0,0.342-0.043,0.499-0.134L31,40.703&#10;&#9;&#9;v3.268c0,0.553,0.448,1,1,1c0.552,0,1-0.447,1-1v-3.268l2.83,1.634c0.158,0.091,0.33,0.134,0.499,0.134&#10;&#9;&#9;c0.346,0,0.682-0.179,0.867-0.5c0.276-0.479,0.112-1.09-0.366-1.366L34,38.97l2.83-1.634C37.309,37.06,37.472,36.449,37.196,35.97z&#10;&#9;&#9;" id="el_zYwQ8wA1vD"/></g>
	<g id="el_705XAxr62i_an_RVTgkycqQ" data-animator-group="true" data-animator-type="0"><path d="M48.196,49.002c-0.276-0.479-0.889-0.643-1.366-0.366L44,50.269v-3.268c0-0.553-0.448-1-1-1&#10;&#9;&#9;s-1,0.447-1,1v3.268l-2.83-1.634c-0.48-0.276-1.09-0.113-1.366,0.366c-0.276,0.479-0.112,1.09,0.366,1.366L41,52.002l-2.83,1.634&#10;&#9;&#9;c-0.479,0.276-0.642,0.888-0.366,1.366c0.186,0.321,0.521,0.5,0.867,0.5c0.169,0,0.342-0.043,0.499-0.134L42,53.734v3.268&#10;&#9;&#9;c0,0.553,0.448,1,1,1s1-0.447,1-1v-3.268l2.83,1.634c0.158,0.091,0.33,0.134,0.499,0.134c0.346,0,0.682-0.179,0.867-0.5&#10;&#9;&#9;c0.276-0.479,0.112-1.09-0.366-1.366L45,52.002l2.83-1.634C48.309,50.092,48.472,49.48,48.196,49.002z" id="el_705XAxr62i"/></g>
</g>















</svg>