<svg version="1.1" id="el_mudAreMrE" xmlns="http://www.w3.org/2000/svg" xmlns:xlink="http://www.w3.org/1999/xlink" x="0px" y="0px" viewBox="0 0 60 60" style="enable-background:new 0 0 60.003 60.003;" xml:space="preserve"><style>@-webkit-keyframes kf_el_Uj36ZBRDI2_an_pKHtzTGPW{0%{-webkit-transform: translate(30.00336194038391px, 28.283002853393555px) translate(-30.00336194038391px, -28.283002853393555px) translate(0px, 0px);transform: translate(30.00336194038391px, 28.283002853393555px) translate(-30.00336194038391px, -28.283002853393555px) translate(0px, 0px);}50%{-webkit-transform: translate(30.00336194038391px, 28.283002853393555px) translate(-30.00336194038391px, -28.283002853393555px) translate(10px, 0px);transform: translate(30.00336194038391px, 28.283002853393555px) translate(-30.00336194038391px, -28.283002853393555px) translate(10px, 0px);}100%{-webkit-transform: translate(30.00336194038391px, 28.283002853393555px) translate(-30.00336194038391px, -28.283002853393555px) translate(0px, 0px);transform: translate(30.00336194038391px, 28.283002853393555px) translate(-30.00336194038391px, -28.283002853393555px) translate(0px, 0px);}}@keyframes kf_el_Uj36ZBRDI2_an_pKHtzTGPW{0%{-webkit-transform: translate(30.00336194038391px, 28.283002853393555px) translate(-30.00336194038391px, -28.283002853393555px) translate(0px, 0px);transform: translate(30.00336194038391px, 28.283002853393555px) translate(-30.00336194038391px, -28.283002853393555px) translate(0px, 0px);}50%{-webkit-transform: translate(30.00336194038391px, 28.283002853393555px) translate(-30.00336194038391px, -28.283002853393555px) translate(10px, 0px);transform: translate(30.00336194038391px, 28.283002853393555px) translate(-30.00336194038391px, -28.283002853393555px) translate(10px, 0px);}100%{-webkit-transform: translate(30.00336194038391px, 28.283002853393555px) translate(-30.00336194038391px, -28.283002853393555px) translate(0px, 0px);transform: translate(30.00336194038391px, 28.283002853393555px) translate(-30.00336194038391px, -28.283002853393555px) translate(0px, 0px);}}@-webkit-keyframes kf_el_IhIoSmf7Bg_an_lkLUY7f4j{0%{-webkit-transform: translate(31.00163745880127px, 29.964998245239258px) translate(-31.00163745880127px, -29.964998245239258px) translate(0px, 0px);transform: translate(31.00163745880127px, 29.964998245239258px) translate(-31.00163745880127px, -29.964998245239258px) translate(0px, 0px);}50%{-webkit-transform: translate(31.00163745880127px, 29.964998245239258px) translate(-31.00163745880127px, -29.964998245239258px) translate(10px, 0px);transform: translate(31.00163745880127px, 29.964998245239258px) translate(-31.00163745880127px, -29.964998245239258px) translate(10px, 0px);}100%{-webkit-transform: translate(31.00163745880127px, 29.964998245239258px) translate(-31.00163745880127px, -29.964998245239258px) translate(0px, 0px);transform: translate(31.00163745880127px, 29.964998245239258px) translate(-31.00163745880127px, -29.964998245239258px) translate(0px, 0px);}}@keyframes kf_el_IhIoSmf7Bg_an_lkLUY7f4j{0%{-webkit-transform: translate(31.00163745880127px, 29.964998245239258px) translate(-31.00163745880127px, -29.964998245239258px) translate(0px, 0px);transform: translate(31.00163745880127px, 29.964998245239258px) translate(-31.00163745880127px, -29.964998245239258px) translate(0px, 0px);}50%{-webkit-transform: translate(31.00163745880127px, 29.964998245239258px) translate(-31.00163745880127px, -29.964998245239258px) translate(10px, 0px);transform: translate(31.00163745880127px, 29.964998245239258px) translate(-31.00163745880127px, -29.964998245239258px) translate(10px, 0px);}100%{-webkit-transform: translate(31.00163745880127px, 29.964998245239258px) translate(-31.00163745880127px, -29.964998245239258px) translate(0px, 0px);transform: translate(31.00163745880127px, 29.964998245239258px) translate(-31.00163745880127px, -29.964998245239258px) translate(0px, 0px);}}@-webkit-keyframes kf_el_T-TF6kvLLA_an_ysrDkCO1K{0%{opacity: 1;}60%{opacity: 0;}100%{opacity: 1;}}@keyframes kf_el_T-TF6kvLLA_an_ysrDkCO1K{0%{opacity: 1;}60%{opacity: 0;}100%{opacity: 1;}}@-webkit-keyframes kf_el_nyn0Ofr9XM_an_pPgJx5PSP{0%{opacity: 1;}40%{opacity: 0;}95%{opacity: 1;}100%{opacity: 1;}}@keyframes kf_el_nyn0Ofr9XM_an_pPgJx5PSP{0%{opacity: 1;}40%{opacity: 0;}95%{opacity: 1;}100%{opacity: 1;}}@-webkit-keyframes kf_el_OLotVfXhvb_an_vvEXCLk3u{0%{opacity: 1;}45%{opacity: 0;}100%{opacity: 1;}}@keyframes kf_el_OLotVfXhvb_an_vvEXCLk3u{0%{opacity: 1;}45%{opacity: 0;}100%{opacity: 1;}}@-webkit-keyframes kf_el_Yf-JA9vBLx_an_nReAqHvwv{0%{opacity: 1;}55.00%{opacity: 0;}100%{opacity: 1;}}@keyframes kf_el_Yf-JA9vBLx_an_nReAqHvwv{0%{opacity: 1;}55.00%{opacity: 0;}100%{opacity: 1;}}@-webkit-keyframes kf_el__zROwsyB0K_an_dNw0HaMN4{0%{opacity: 1;}45%{opacity: 0;}95%{opacity: 1;}100%{opacity: 1;}}@keyframes kf_el__zROwsyB0K_an_dNw0HaMN4{0%{opacity: 1;}45%{opacity: 0;}95%{opacity: 1;}100%{opacity: 1;}}@-webkit-keyframes kf_el_xeM3Y4agzD_an_6FNJzshZx{0%{opacity: 1;}50%{opacity: 0;}100%{opacity: 1;}}@keyframes kf_el_xeM3Y4agzD_an_6FNJzshZx{0%{opacity: 1;}50%{opacity: 0;}100%{opacity: 1;}}@-webkit-keyframes kf_el_OyMrPZgEVv_an_zYRHvB1CE{0%{opacity: 1;}60%{opacity: 0;}90%{opacity: 1;}100%{opacity: 1;}}@keyframes kf_el_OyMrPZgEVv_an_zYRHvB1CE{0%{opacity: 1;}60%{opacity: 0;}90%{opacity: 1;}100%{opacity: 1;}}@-webkit-keyframes kf_el_frgf3XpRBD_an_ZOeCGKkSO{0%{-webkit-transform: translate(8.004000186920166px, 9.001999378204346px) scale(0, 0) translate(-8.004000186920166px, -9.001999378204346px);transform: translate(8.004000186920166px, 9.001999378204346px) scale(0, 0) translate(-8.004000186920166px, -9.001999378204346px);}45%{-webkit-transform: translate(8.004000186920166px, 9.001999378204346px) scale(1.1, 1.1) translate(-8.004000186920166px, -9.001999378204346px);transform: translate(8.004000186920166px, 9.001999378204346px) scale(1.1, 1.1) translate(-8.004000186920166px, -9.001999378204346px);}100%{-webkit-transform: translate(8.004000186920166px, 9.001999378204346px) scale(0, 0) translate(-8.004000186920166px, -9.001999378204346px);transform: translate(8.004000186920166px, 9.001999378204346px) scale(0, 0) translate(-8.004000186920166px, -9.001999378204346px);}}@keyframes kf_el_frgf3XpRBD_an_ZOeCGKkSO{0%{-webkit-transform: translate(8.004000186920166px, 9.001999378204346px) scale(0, 0) translate(-8.004000186920166px, -9.001999378204346px);transform: translate(8.004000186920166px, 9.001999378204346px) scale(0, 0) translate(-8.004000186920166px, -9.001999378204346px);}45%{-webkit-transform: translate(8.004000186920166px, 9.001999378204346px) scale(1.1, 1.1) translate(-8.004000186920166px, -9.001999378204346px);transform: translate(8.004000186920166px, 9.001999378204346px) scale(1.1, 1.1) translate(-8.004000186920166px, -9.001999378204346px);}100%{-webkit-transform: translate(8.004000186920166px, 9.001999378204346px) scale(0, 0) translate(-8.004000186920166px, -9.001999378204346px);transform: translate(8.004000186920166px, 9.001999378204346px) scale(0, 0) translate(-8.004000186920166px, -9.001999378204346px);}}@-webkit-keyframes kf_el_frgf3XpRBD_an_4CwzDLLPy{0%{opacity: 0;}45%{opacity: 1;}100%{opacity: 0;}}@keyframes kf_el_frgf3XpRBD_an_4CwzDLLPy{0%{opacity: 0;}45%{opacity: 1;}100%{opacity: 0;}}@-webkit-keyframes kf_el_f-O_2Dt5cd_an_p8vbXNcAb{0%{-webkit-transform: translate(7.002999782562256px, 25.001998901367188px) scale(0, 0) translate(-7.002999782562256px, -25.001998901367188px);transform: translate(7.002999782562256px, 25.001998901367188px) scale(0, 0) translate(-7.002999782562256px, -25.001998901367188px);}55.00%{-webkit-transform: translate(7.002999782562256px, 25.001998901367188px) scale(1.1, 1.1) translate(-7.002999782562256px, -25.001998901367188px);transform: translate(7.002999782562256px, 25.001998901367188px) scale(1.1, 1.1) translate(-7.002999782562256px, -25.001998901367188px);}100%{-webkit-transform: translate(7.002999782562256px, 25.001998901367188px) scale(0, 0) translate(-7.002999782562256px, -25.001998901367188px);transform: translate(7.002999782562256px, 25.001998901367188px) scale(0, 0) translate(-7.002999782562256px, -25.001998901367188px);}}@keyframes kf_el_f-O_2Dt5cd_an_p8vbXNcAb{0%{-webkit-transform: translate(7.002999782562256px, 25.001998901367188px) scale(0, 0) translate(-7.002999782562256px, -25.001998901367188px);transform: translate(7.002999782562256px, 25.001998901367188px) scale(0, 0) translate(-7.002999782562256px, -25.001998901367188px);}55.00%{-webkit-transform: translate(7.002999782562256px, 25.001998901367188px) scale(1.1, 1.1) translate(-7.002999782562256px, -25.001998901367188px);transform: translate(7.002999782562256px, 25.001998901367188px) scale(1.1, 1.1) translate(-7.002999782562256px, -25.001998901367188px);}100%{-webkit-transform: translate(7.002999782562256px, 25.001998901367188px) scale(0, 0) translate(-7.002999782562256px, -25.001998901367188px);transform: translate(7.002999782562256px, 25.001998901367188px) scale(0, 0) translate(-7.002999782562256px, -25.001998901367188px);}}@-webkit-keyframes kf_el_f-O_2Dt5cd_an_H_gYOYMz2{0%{opacity: 0;}55.00%{opacity: 1;}100%{opacity: 0;}}@keyframes kf_el_f-O_2Dt5cd_an_H_gYOYMz2{0%{opacity: 0;}55.00%{opacity: 1;}100%{opacity: 0;}}@-webkit-keyframes kf_el_l3p2hXIwCV_an_dABJbBzaU_{0%{-webkit-transform: translate(23.00400161743164px, 13.00200080871582px) scale(0, 0) translate(-23.00400161743164px, -13.00200080871582px);transform: translate(23.00400161743164px, 13.00200080871582px) scale(0, 0) translate(-23.00400161743164px, -13.00200080871582px);}65%{-webkit-transform: translate(23.00400161743164px, 13.00200080871582px) scale(1.1, 1.1) translate(-23.00400161743164px, -13.00200080871582px);transform: translate(23.00400161743164px, 13.00200080871582px) scale(1.1, 1.1) translate(-23.00400161743164px, -13.00200080871582px);}100%{-webkit-transform: translate(23.00400161743164px, 13.00200080871582px) scale(0, 0) translate(-23.00400161743164px, -13.00200080871582px);transform: translate(23.00400161743164px, 13.00200080871582px) scale(0, 0) translate(-23.00400161743164px, -13.00200080871582px);}}@keyframes kf_el_l3p2hXIwCV_an_dABJbBzaU_{0%{-webkit-transform: translate(23.00400161743164px, 13.00200080871582px) scale(0, 0) translate(-23.00400161743164px, -13.00200080871582px);transform: translate(23.00400161743164px, 13.00200080871582px) scale(0, 0) translate(-23.00400161743164px, -13.00200080871582px);}65%{-webkit-transform: translate(23.00400161743164px, 13.00200080871582px) scale(1.1, 1.1) translate(-23.00400161743164px, -13.00200080871582px);transform: translate(23.00400161743164px, 13.00200080871582px) scale(1.1, 1.1) translate(-23.00400161743164px, -13.00200080871582px);}100%{-webkit-transform: translate(23.00400161743164px, 13.00200080871582px) scale(0, 0) translate(-23.00400161743164px, -13.00200080871582px);transform: translate(23.00400161743164px, 13.00200080871582px) scale(0, 0) translate(-23.00400161743164px, -13.00200080871582px);}}@-webkit-keyframes kf_el_l3p2hXIwCV_an_IYeyGFnhm{0%{opacity: 0;}65%{opacity: 1;}100%{opacity: 0;}}@keyframes kf_el_l3p2hXIwCV_an_IYeyGFnhm{0%{opacity: 0;}65%{opacity: 1;}100%{opacity: 0;}}#el_mudAreMrE *{-webkit-animation-duration: 2s;animation-duration: 2s;-webkit-animation-iteration-count: infinite;animation-iteration-count: infinite;-webkit-animation-timing-function: cubic-bezier(0, 0, 1, 1);animation-timing-function: cubic-bezier(0, 0, 1, 1);}#el_l3p2hXIwCV{fill: #FBD490;stroke: #F0C419;stroke-width: 2;stroke-miterlimit: 10;-webkit-animation-fill-mode: backwards;animation-fill-mode: backwards;opacity: 0;-webkit-animation-name: kf_el_l3p2hXIwCV_an_IYeyGFnhm;animation-name: kf_el_l3p2hXIwCV_an_IYeyGFnhm;-webkit-animation-timing-function: cubic-bezier(0.42, 0, 0.58, 1);animation-timing-function: cubic-bezier(0.42, 0, 0.58, 1);}#el_f-O_2Dt5cd{fill: #FBD490;stroke: #F0C419;stroke-width: 2;stroke-miterlimit: 10;-webkit-animation-fill-mode: backwards;animation-fill-mode: backwards;opacity: 0;-webkit-animation-name: kf_el_f-O_2Dt5cd_an_H_gYOYMz2;animation-name: kf_el_f-O_2Dt5cd_an_H_gYOYMz2;-webkit-animation-timing-function: cubic-bezier(0.42, 0, 0.58, 1);animation-timing-function: cubic-bezier(0.42, 0, 0.58, 1);}#el_frgf3XpRBD{fill: #FBD490;stroke: #F0C419;stroke-width: 2;stroke-miterlimit: 10;-webkit-animation-fill-mode: backwards;animation-fill-mode: backwards;opacity: 0;-webkit-animation-name: kf_el_frgf3XpRBD_an_4CwzDLLPy;animation-name: kf_el_frgf3XpRBD_an_4CwzDLLPy;-webkit-animation-timing-function: cubic-bezier(0.42, 0, 0.58, 1);animation-timing-function: cubic-bezier(0.42, 0, 0.58, 1);}#el_IhIoSmf7Bg{fill: #D0E8F9;}#el_K23pCx9OIl{fill: #ABCADD;}#el_bHAxP9hS6_{fill: #ABCADD;}#el_OyMrPZgEVv{fill: #ABC5D3;-webkit-animation-fill-mode: backwards;animation-fill-mode: backwards;opacity: 1;-webkit-animation-name: kf_el_OyMrPZgEVv_an_zYRHvB1CE;animation-name: kf_el_OyMrPZgEVv_an_zYRHvB1CE;-webkit-animation-timing-function: cubic-bezier(0.42, 0, 0.58, 1);animation-timing-function: cubic-bezier(0.42, 0, 0.58, 1);}#el_xeM3Y4agzD{fill: #ABC5D3;-webkit-animation-fill-mode: backwards;animation-fill-mode: backwards;opacity: 1;-webkit-animation-name: kf_el_xeM3Y4agzD_an_6FNJzshZx;animation-name: kf_el_xeM3Y4agzD_an_6FNJzshZx;-webkit-animation-timing-function: cubic-bezier(0.42, 0, 0.58, 1);animation-timing-function: cubic-bezier(0.42, 0, 0.58, 1);}#el__zROwsyB0K{fill: #ABC5D3;-webkit-animation-fill-mode: backwards;animation-fill-mode: backwards;opacity: 1;-webkit-animation-name: kf_el__zROwsyB0K_an_dNw0HaMN4;animation-name: kf_el__zROwsyB0K_an_dNw0HaMN4;-webkit-animation-timing-function: cubic-bezier(0.42, 0, 0.58, 1);animation-timing-function: cubic-bezier(0.42, 0, 0.58, 1);}#el_Yf-JA9vBLx{fill: #ABC5D3;-webkit-animation-fill-mode: backwards;animation-fill-mode: backwards;opacity: 1;-webkit-animation-name: kf_el_Yf-JA9vBLx_an_nReAqHvwv;animation-name: kf_el_Yf-JA9vBLx_an_nReAqHvwv;-webkit-animation-timing-function: cubic-bezier(0.42, 0, 0.58, 1);animation-timing-function: cubic-bezier(0.42, 0, 0.58, 1);}#el_OLotVfXhvb{fill: #ABC5D3;-webkit-animation-fill-mode: backwards;animation-fill-mode: backwards;opacity: 1;-webkit-animation-name: kf_el_OLotVfXhvb_an_vvEXCLk3u;animation-name: kf_el_OLotVfXhvb_an_vvEXCLk3u;-webkit-animation-timing-function: cubic-bezier(0.42, 0, 0.58, 1);animation-timing-function: cubic-bezier(0.42, 0, 0.58, 1);}#el_nyn0Ofr9XM{fill: #ABC5D3;-webkit-animation-fill-mode: backwards;animation-fill-mode: backwards;opacity: 1;-webkit-animation-name: kf_el_nyn0Ofr9XM_an_pPgJx5PSP;animation-name: kf_el_nyn0Ofr9XM_an_pPgJx5PSP;-webkit-animation-timing-function: cubic-bezier(0.42, 0, 0.58, 1);animation-timing-function: cubic-bezier(0.42, 0, 0.58, 1);}#el_T-TF6kvLLA{fill: #ABC5D3;-webkit-animation-fill-mode: backwards;animation-fill-mode: backwards;opacity: 1;-webkit-animation-name: kf_el_T-TF6kvLLA_an_ysrDkCO1K;animation-name: kf_el_T-TF6kvLLA_an_ysrDkCO1K;-webkit-animation-timing-function: cubic-bezier(0.42, 0, 0.58, 1);animation-timing-function: cubic-bezier(0.42, 0, 0.58, 1);}#el_l3p2hXIwCV_an_dABJbBzaU_{-webkit-animation-fill-mode: backwards;animation-fill-mode: backwards;-webkit-transform: translate(23.00400161743164px, 13.00200080871582px) scale(0, 0) translate(-23.00400161743164px, -13.00200080871582px);transform: translate(23.00400161743164px, 13.00200080871582px) scale(0, 0) translate(-23.00400161743164px, -13.00200080871582px);-webkit-animation-name: kf_el_l3p2hXIwCV_an_dABJbBzaU_;animation-name: kf_el_l3p2hXIwCV_an_dABJbBzaU_;-webkit-animation-timing-function: cubic-bezier(0.42, 0, 0.58, 1);animation-timing-function: cubic-bezier(0.42, 0, 0.58, 1);}#el_f-O_2Dt5cd_an_p8vbXNcAb{-webkit-animation-fill-mode: backwards;animation-fill-mode: backwards;-webkit-transform: translate(7.002999782562256px, 25.001998901367188px) scale(0, 0) translate(-7.002999782562256px, -25.001998901367188px);transform: translate(7.002999782562256px, 25.001998901367188px) scale(0, 0) translate(-7.002999782562256px, -25.001998901367188px);-webkit-animation-name: kf_el_f-O_2Dt5cd_an_p8vbXNcAb;animation-name: kf_el_f-O_2Dt5cd_an_p8vbXNcAb;-webkit-animation-timing-function: cubic-bezier(0.42, 0, 0.58, 1);animation-timing-function: cubic-bezier(0.42, 0, 0.58, 1);}#el_frgf3XpRBD_an_ZOeCGKkSO{-webkit-animation-fill-mode: backwards;animation-fill-mode: backwards;-webkit-transform: translate(8.004000186920166px, 9.001999378204346px) scale(0, 0) translate(-8.004000186920166px, -9.001999378204346px);transform: translate(8.004000186920166px, 9.001999378204346px) scale(0, 0) translate(-8.004000186920166px, -9.001999378204346px);-webkit-animation-name: kf_el_frgf3XpRBD_an_ZOeCGKkSO;animation-name: kf_el_frgf3XpRBD_an_ZOeCGKkSO;-webkit-animation-timing-function: cubic-bezier(0.42, 0, 0.58, 1);animation-timing-function: cubic-bezier(0.42, 0, 0.58, 1);}#el_IhIoSmf7Bg_an_lkLUY7f4j{-webkit-animation-fill-mode: backwards;animation-fill-mode: backwards;-webkit-transform: translate(31.00163745880127px, 29.964998245239258px) translate(-31.00163745880127px, -29.964998245239258px) translate(0px, 0px);transform: translate(31.00163745880127px, 29.964998245239258px) translate(-31.00163745880127px, -29.964998245239258px) translate(0px, 0px);-webkit-animation-name: kf_el_IhIoSmf7Bg_an_lkLUY7f4j;animation-name: kf_el_IhIoSmf7Bg_an_lkLUY7f4j;-webkit-animation-timing-function: cubic-bezier(0.42, 0, 0.58, 1);animation-timing-function: cubic-bezier(0.42, 0, 0.58, 1);}#el_Uj36ZBRDI2_an_pKHtzTGPW{-webkit-animation-fill-mode: backwards;animation-fill-mode: backwards;-webkit-transform: translate(30.00336194038391px, 28.283002853393555px) translate(-30.00336194038391px, -28.283002853393555px) translate(0px, 0px);transform: translate(30.00336194038391px, 28.283002853393555px) translate(-30.00336194038391px, -28.283002853393555px) translate(0px, 0px);-webkit-animation-name: kf_el_Uj36ZBRDI2_an_pKHtzTGPW;animation-name: kf_el_Uj36ZBRDI2_an_pKHtzTGPW;-webkit-animation-timing-function: cubic-bezier(0.42, 0, 0.58, 1);animation-timing-function: cubic-bezier(0.42, 0, 0.58, 1);}</style>
<g id="el_l3p2hXIwCV_an_dABJbBzaU_" data-animator-group="true" data-animator-type="2"><path d="M18.069,13.071&#10;&#9;c2.503,0.387,4.478,2.362,4.866,4.866c0.013,0.087,0.125,0.087,0.138,0c0.387-2.503,2.362-4.478,4.866-4.866&#10;&#9;c0.087-0.013,0.087-0.125,0-0.138c-2.503-0.387-4.478-2.362-4.866-4.866c-0.013-0.087-0.125-0.087-0.138,0&#10;&#9;c-0.387,2.503-2.362,4.478-4.866,4.866C17.982,12.946,17.982,13.057,18.069,13.071z" id="el_l3p2hXIwCV"/></g>
<g id="el_f-O_2Dt5cd_an_p8vbXNcAb" data-animator-group="true" data-animator-type="2"><path d="M3.056,25.057&#10;&#9;c2.003,0.31,3.583,1.89,3.892,3.892c0.011,0.07,0.1,0.07,0.11,0c0.31-2.003,1.89-3.583,3.892-3.892c0.07-0.011,0.07-0.1,0-0.11&#10;&#9;c-2.003-0.31-3.583-1.89-3.892-3.892c-0.011-0.07-0.1-0.07-0.11,0c-0.31,2.003-1.89,3.583-3.892,3.892&#10;&#9;C2.986,24.957,2.986,25.046,3.056,25.057z" id="el_f-O_2Dt5cd"/></g>
<g id="el_frgf3XpRBD_an_ZOeCGKkSO" data-animator-group="true" data-animator-type="2"><path d="M2.082,9.085&#10;&#9;c3.004,0.465,5.374,2.835,5.839,5.839c0.016,0.105,0.149,0.105,0.166,0c0.465-3.004,2.835-5.374,5.839-5.839&#10;&#9;c0.105-0.016,0.105-0.149,0-0.166C10.921,8.454,8.551,6.084,8.086,3.08c-0.016-0.105-0.149-0.105-0.166,0&#10;&#9;C7.456,6.084,5.086,8.454,2.082,8.919C1.977,8.935,1.977,9.068,2.082,9.085z" id="el_frgf3XpRBD"/></g>
<g id="el_IhIoSmf7Bg_an_lkLUY7f4j" data-animator-group="true" data-animator-type="0"><path d="M59.979,24.002h-0.081c0.035,0.304,0.059,0.611,0.059,0.925c0,0.553-0.447,1-1,1s-1-0.447-1-1&#10;&#9;c0-3.309-2.691-6-6-6s-6,2.691-6,6c0,0.553-0.447,1-1,1s-1-0.447-1-1c0-4.064,3.049-7.423,6.978-7.927&#10;&#9;c-0.226-5.039-4.384-9.073-9.478-9.073c-5.111,0-9.281,4.06-9.481,9.123c0.829,0.196,1.632,0.52,2.378,0.981&#10;&#9;c1.816,1.125,3.086,2.89,3.576,4.97c0.126,0.538-0.207,1.076-0.744,1.203c-0.538,0.121-1.076-0.207-1.203-0.744&#10;&#9;c-0.758-3.222-3.999-5.226-7.214-4.467c-3.221,0.758-5.225,3.994-4.467,7.215c0.126,0.537-0.207,1.075-0.745,1.202&#10;&#9;c-0.076,0.018-0.153,0.026-0.229,0.026c-0.453,0-0.864-0.311-0.973-0.771c-0.294-1.251-0.268-2.502,0.012-3.674&#10;&#9;c-2.058-0.301-4.137,0.476-5.493,2.122c-1.258,1.529-1.625,3.498-1.175,5.285c0.001,0.012,0.007,0.022,0.008,0.034&#10;&#9;c0.306,1.186,0.97,2.29,1.985,3.127c0.426,0.352,0.487,0.981,0.137,1.408c-0.198,0.24-0.484,0.364-0.773,0.364&#10;&#9;c-0.224,0-0.448-0.074-0.635-0.228c-1.217-1.002-2.088-2.311-2.546-3.781c-4.043-1.054-8.294,0.647-10.49,4.262&#10;&#9;c-1.317,2.168-1.712,4.72-1.11,7.185c0.602,2.466,2.127,4.549,4.296,5.867c0.472,0.287,0.622,0.901,0.335,1.374&#10;&#9;c-0.188,0.31-0.518,0.48-0.855,0.48c-0.133,0-0.265-0.036-0.392-0.091c1.58,0.936,3.399,1.509,5.344,1.593l8.209,0.003&#10;&#9;c5.307-0.085,9.853-3.36,11.791-7.992c1.963,4.693,6.603,8,12,8c9.374,0,17-7.626,17-17v-10L59.979,24.002z" id="el_IhIoSmf7Bg"/></g>
<g id="el_Uj36ZBRDI2_an_pKHtzTGPW" data-animator-group="true" data-animator-type="0"><g id="el_Uj36ZBRDI2">
	<path d="M52.936,17.068c-0.231-6.139-5.284-11.066-11.478-11.066c-6.142,0-11.16,4.844-11.47,10.91&#10;&#9;&#9;c-0.558,0.012-1.119,0.078-1.676,0.209c-2.336,0.55-4.185,2.082-5.229,4.052c-2.882-0.585-5.848,0.433-7.75,2.742&#10;&#9;&#9;c-1.251,1.52-1.879,3.408-1.81,5.359c-4.63-0.834-9.34,1.224-11.844,5.344c-1.596,2.625-2.073,5.714-1.345,8.698&#10;&#9;&#9;s2.575,5.506,5.2,7.102c0.162,0.099,0.342,0.146,0.519,0.146c0.338,0,0.667-0.171,0.855-0.48c0.287-0.473,0.137-1.087-0.335-1.374&#10;&#9;&#9;c-2.169-1.318-3.694-3.401-4.296-5.867c-0.602-2.465-0.207-5.017,1.11-7.185c2.196-3.614,6.447-5.315,10.49-4.262&#10;&#9;&#9;c0.458,1.471,1.33,2.779,2.546,3.781c0.187,0.153,0.411,0.228,0.635,0.228c0.289,0,0.575-0.124,0.773-0.364&#10;&#9;&#9;c0.351-0.427,0.289-1.057-0.137-1.408c-1.016-0.836-1.679-1.941-1.985-3.127c-0.001-0.012-0.007-0.022-0.008-0.034&#10;&#9;&#9;c-0.45-1.787-0.083-3.756,1.175-5.285c1.356-1.646,3.435-2.423,5.493-2.122c-0.28,1.173-0.307,2.423-0.012,3.674&#10;&#9;&#9;c0.108,0.461,0.52,0.771,0.973,0.771c0.076,0,0.153-0.009,0.229-0.026c0.538-0.127,0.871-0.665,0.745-1.202&#10;&#9;&#9;c-0.758-3.221,1.246-6.457,4.467-7.215c3.215-0.759,6.456,1.245,7.214,4.467c0.127,0.537,0.665,0.865,1.203,0.744&#10;&#9;&#9;c0.537-0.127,0.87-0.665,0.744-1.203c-0.49-2.08-1.76-3.845-3.576-4.97c-0.746-0.462-1.549-0.785-2.378-0.981&#10;&#9;&#9;c0.2-5.063,4.37-9.123,9.481-9.123c5.094,0,9.253,4.033,9.478,9.073c-3.929,0.504-6.978,3.863-6.978,7.927c0,0.553,0.447,1,1,1&#10;&#9;&#9;s1-0.447,1-1c0-3.309,2.691-6,6-6s6.046,2.691,6.046,6c0,0.028,0,1.327,0,3c0,0.552,0.448,1,1,1s1-0.448,1-1v-3&#10;&#9;&#9;C60.003,20.922,56.886,17.552,52.936,17.068z" id="el_K23pCx9OIl"/>
	<path d="M48.003,38.002c0.552,0,1-0.448,1-1c0-1.442,0-0.5,0-0.5c0-2.481,2.019-4.5,4.5-4.5&#10;&#9;&#9;s4.5,2.019,4.5,4.5c0,0.553,0.448,1,1,1s1-0.447,1-1c0-3.584-2.916-6.5-6.5-6.5c-3.415,0-6.243,2.649-6.5,6v1&#10;&#9;&#9;C47.003,37.554,47.451,38.002,48.003,38.002z" id="el_bHAxP9hS6_"/>
</g></g>
<g id="el_CImuiqxSMd">
	<path d="M29.296,47.295l-3,3c-0.391,0.391-0.391,1.023,0,1.414c0.195,0.195,0.451,0.293,0.707,0.293&#10;&#9;&#9;s0.512-0.098,0.707-0.293l3-3c0.391-0.391,0.391-1.023,0-1.414S29.687,46.904,29.296,47.295z" id="el_OyMrPZgEVv"/>
	<path d="M23.296,53.295l-3,3c-0.391,0.391-0.391,1.023,0,1.414c0.195,0.195,0.451,0.293,0.707,0.293&#10;&#9;&#9;s0.512-0.098,0.707-0.293l3-3c0.391-0.391,0.391-1.023,0-1.414S23.687,52.904,23.296,53.295z" id="el_xeM3Y4agzD"/>
	<path d="M44.71,41.295c-0.391-0.391-1.023-0.391-1.414,0l-3,3c-0.391,0.391-0.391,1.023,0,1.414&#10;&#9;&#9;c0.195,0.195,0.451,0.293,0.707,0.293s0.512-0.098,0.707-0.293l3-3C45.101,42.318,45.101,41.685,44.71,41.295z" id="el__zROwsyB0K"/>
	<path d="M37.296,47.295l-3,3c-0.391,0.391-0.391,1.023,0,1.414c0.195,0.195,0.451,0.293,0.707,0.293&#10;&#9;&#9;s0.512-0.098,0.707-0.293l3-3c0.391-0.391,0.391-1.023,0-1.414S37.687,46.904,37.296,47.295z" id="el_Yf-JA9vBLx"/>
	<path d="M28.71,41.295c-0.391-0.391-1.023-0.391-1.414,0l-3,3c-0.391,0.391-0.391,1.023,0,1.414&#10;&#9;&#9;c0.195,0.195,0.451,0.293,0.707,0.293s0.512-0.098,0.707-0.293l3-3C29.101,42.318,29.101,41.685,28.71,41.295z" id="el_OLotVfXhvb"/>
	<path d="M36.71,41.295c-0.391-0.391-1.023-0.391-1.414,0l-3,3c-0.391,0.391-0.391,1.023,0,1.414&#10;&#9;&#9;c0.195,0.195,0.451,0.293,0.707,0.293s0.512-0.098,0.707-0.293l3-3C37.101,42.318,37.101,41.685,36.71,41.295z" id="el_nyn0Ofr9XM"/>
	<path d="M22.71,47.295c-0.391-0.391-1.023-0.391-1.414,0l-3,3c-0.391,0.391-0.391,1.023,0,1.414&#10;&#9;&#9;c0.195,0.195,0.451,0.293,0.707,0.293s0.512-0.098,0.707-0.293l3-3C23.101,48.318,23.101,47.685,22.71,47.295z" id="el_T-TF6kvLLA"/>
</g>
<g id="el_YF6-KGw_YIB">
</g>
<g id="el_vl6BcOJs0qY">
</g>
<g id="el_SQBRYh-89I2">
</g>
<g id="el_dGGsicbWqHR">
</g>
<g id="el_bGAnQ53ZRmU">
</g>
<g id="el_1siw001yetN">
</g>
<g id="el_CnxuSR_Magr">
</g>
<g id="el_eQKF4puF-ig">
</g>
<g id="el_U3vV0u1FuLk">
</g>
<g id="el_TXwpeSEtuXk">
</g>
<g id="el_ZbiGlgry3Zw">
</g>
<g id="el_2wpN3Y0XZd7">
</g>
<g id="el_XCfP-_l3gn0">
</g>
<g id="el_qjPSrj55WVF">
</g>
<g id="el_9sSv5gFG1gc">
</g>
</svg>