<svg version="1.1" id="el_xGsAopy08" xmlns="http://www.w3.org/2000/svg" xmlns:xlink="http://www.w3.org/1999/xlink" x="0px" y="0px" viewBox="0 0 58 58" style="enable-background:new 0 0 58 58;" xml:space="preserve"><style>@-webkit-keyframes kf_el_e6Bx2aeJeo_an_Td8ggvJmv{0%{-webkit-transform: translate(51.000375747680664px, 7.000000596046448px) scale(0, 0) translate(-51.000375747680664px, -7.000000596046448px);transform: translate(51.000375747680664px, 7.000000596046448px) scale(0, 0) translate(-51.000375747680664px, -7.000000596046448px);}70%{-webkit-transform: translate(51.000375747680664px, 7.000000596046448px) scale(1.1, 1.1) translate(-51.000375747680664px, -7.000000596046448px);transform: translate(51.000375747680664px, 7.000000596046448px) scale(1.1, 1.1) translate(-51.000375747680664px, -7.000000596046448px);}100%{-webkit-transform: translate(51.000375747680664px, 7.000000596046448px) scale(0, 0) translate(-51.000375747680664px, -7.000000596046448px);transform: translate(51.000375747680664px, 7.000000596046448px) scale(0, 0) translate(-51.000375747680664px, -7.000000596046448px);}}@keyframes kf_el_e6Bx2aeJeo_an_Td8ggvJmv{0%{-webkit-transform: translate(51.000375747680664px, 7.000000596046448px) scale(0, 0) translate(-51.000375747680664px, -7.000000596046448px);transform: translate(51.000375747680664px, 7.000000596046448px) scale(0, 0) translate(-51.000375747680664px, -7.000000596046448px);}70%{-webkit-transform: translate(51.000375747680664px, 7.000000596046448px) scale(1.1, 1.1) translate(-51.000375747680664px, -7.000000596046448px);transform: translate(51.000375747680664px, 7.000000596046448px) scale(1.1, 1.1) translate(-51.000375747680664px, -7.000000596046448px);}100%{-webkit-transform: translate(51.000375747680664px, 7.000000596046448px) scale(0, 0) translate(-51.000375747680664px, -7.000000596046448px);transform: translate(51.000375747680664px, 7.000000596046448px) scale(0, 0) translate(-51.000375747680664px, -7.000000596046448px);}}@-webkit-keyframes kf_el_e6Bx2aeJeo_an_kJUTx8nS2{0%{opacity: 0;}70%{opacity: 1;}100%{opacity: 0;}}@keyframes kf_el_e6Bx2aeJeo_an_kJUTx8nS2{0%{opacity: 0;}70%{opacity: 1;}100%{opacity: 0;}}@-webkit-keyframes kf_el_kz4jko7Y4k_an_WzTaeb1MF1{0%{-webkit-transform: translate(35.999372482299805px, 22px) scale(0, 0) translate(-35.999372482299805px, -22px);transform: translate(35.999372482299805px, 22px) scale(0, 0) translate(-35.999372482299805px, -22px);}50%{-webkit-transform: translate(35.999372482299805px, 22px) scale(1.1, 1.1) translate(-35.999372482299805px, -22px);transform: translate(35.999372482299805px, 22px) scale(1.1, 1.1) translate(-35.999372482299805px, -22px);}100%{-webkit-transform: translate(35.999372482299805px, 22px) scale(0, 0) translate(-35.999372482299805px, -22px);transform: translate(35.999372482299805px, 22px) scale(0, 0) translate(-35.999372482299805px, -22px);}}@keyframes kf_el_kz4jko7Y4k_an_WzTaeb1MF1{0%{-webkit-transform: translate(35.999372482299805px, 22px) scale(0, 0) translate(-35.999372482299805px, -22px);transform: translate(35.999372482299805px, 22px) scale(0, 0) translate(-35.999372482299805px, -22px);}50%{-webkit-transform: translate(35.999372482299805px, 22px) scale(1.1, 1.1) translate(-35.999372482299805px, -22px);transform: translate(35.999372482299805px, 22px) scale(1.1, 1.1) translate(-35.999372482299805px, -22px);}100%{-webkit-transform: translate(35.999372482299805px, 22px) scale(0, 0) translate(-35.999372482299805px, -22px);transform: translate(35.999372482299805px, 22px) scale(0, 0) translate(-35.999372482299805px, -22px);}}@-webkit-keyframes kf_el_kz4jko7Y4k_an_60WvCgxSa{0%{opacity: 0;}50%{opacity: 1;}100%{opacity: 0;}}@keyframes kf_el_kz4jko7Y4k_an_60WvCgxSa{0%{opacity: 0;}50%{opacity: 1;}100%{opacity: 0;}}#el_xGsAopy08 *{-webkit-animation-duration: 2s;animation-duration: 2s;-webkit-animation-iteration-count: infinite;animation-iteration-count: infinite;-webkit-animation-timing-function: cubic-bezier(0, 0, 1, 1);animation-timing-function: cubic-bezier(0, 0, 1, 1);}#el_fk_CB_HJor{fill: #95A5A5;}#el_gx5vamlgma{fill: #95A5A5;}#el_Aqa7iHIop2{fill: #95A5A5;}#el_GaiROBcCUr{fill: #BDC3C7;}#el_kz4jko7Y4k{fill: #FBD490;stroke: #F0C419;stroke-width: 2;stroke-miterlimit: 10;-webkit-animation-fill-mode: backwards;animation-fill-mode: backwards;opacity: 0;-webkit-animation-name: kf_el_kz4jko7Y4k_an_60WvCgxSa;animation-name: kf_el_kz4jko7Y4k_an_60WvCgxSa;-webkit-animation-timing-function: cubic-bezier(0.42, 0, 0.58, 1);animation-timing-function: cubic-bezier(0.42, 0, 0.58, 1);}#el_e6Bx2aeJeo{fill: #FBD490;stroke: #F0C419;stroke-width: 2;stroke-miterlimit: 10;-webkit-animation-fill-mode: backwards;animation-fill-mode: backwards;opacity: 0;-webkit-animation-name: kf_el_e6Bx2aeJeo_an_kJUTx8nS2;animation-name: kf_el_e6Bx2aeJeo_an_kJUTx8nS2;-webkit-animation-timing-function: cubic-bezier(0.42, 0, 0.58, 1);animation-timing-function: cubic-bezier(0.42, 0, 0.58, 1);}#el_0o8wesT62j{fill: #95A5A5;}#el_DceYsskwm9{fill: #95A5A5;}#el_jjzq3MjIGJ{fill: #95A5A5;}#el_OpInXDBCzy{fill: #95A5A5;}#el_P63j8EUw9A{fill: #95A5A5;}#el_CkjntiBPHc{fill: #95A5A5;}#el_ZaM8uPyy60{fill: #95A5A5;}#el_zfTyw35P4o{fill: #95A5A5;}#el_mvbZ5PNhjy{fill: #95A5A5;}#el_g4QWX2yY2IO{fill: #95A5A5;}#el_c2bWHL7MPDz{fill: #95A5A5;}#el_H-uu2ibR8fy{fill: #95A5A5;}#el_1LVwU-bhjoe{fill: #95A5A5;}#el_Cu4NiSr9ksy{fill: #95A5A5;}#el_OZFZnChwS3y{fill: #95A5A5;}#el_XCNMWHS-tXB{fill: #95A5A5;}#el_sstPGl0BoHl{fill: #95A5A5;}#el_gbQjRtYT77g{fill: #95A5A5;}#el_bEQ2v6Oa5FE{fill: #95A5A5;}#el_1NGhgF9ov4L{fill: #95A5A5;}#el_tbv3AxfzaA_{fill: #95A5A5;}#el_3HPFzU0xBlW{fill: #95A5A5;}#el_tdeaAQGXvPg{fill: #95A5A5;}#el_WfYwQ0f7nDV{fill: #95A5A5;}#el_Ueaw40gQ3da{fill: #95A5A5;}#el_4dr9BnhSaxN{fill: #95A5A5;}#el_Un4D0nDKAgo{fill: #95A5A5;}#el_kh5PhN-DKzv{fill: #95A5A5;}#el_ZZxBbIujItP{fill: #95A5A5;}#el_ZD88Vkzh_8a{fill: #95A5A5;}#el_iydzQ_0KdjL{fill: #95A5A5;}#el_tecLtPpZJQA{fill: #95A5A5;}#el_3HVU5JM2uUI{fill: #95A5A5;}#el_SnJzaeqhu2m{fill: #95A5A5;}#el_zHU5AAa1bvF{fill: #95A5A5;}#el_cHuWmOtn7f3{fill: #95A5A5;}#el_VWgsdYJW_T_{fill: #95A5A5;}#el_U7dixa02BnM{fill: #95A5A5;}#el_CjdnvpKMl5P{fill: #95A5A5;}#el_7XLz5988O2D{fill: #95A5A5;}#el_Hsg23UDLPCd{fill: #95A5A5;}#el_YchyzSXraV8{fill: #95A5A5;}#el_oiU29gsTFcp{fill: #95A5A5;}#el_kz4jko7Y4k_an_WzTaeb1MF1{-webkit-animation-fill-mode: backwards;animation-fill-mode: backwards;-webkit-transform: translate(35.999372482299805px, 22px) scale(0, 0) translate(-35.999372482299805px, -22px);transform: translate(35.999372482299805px, 22px) scale(0, 0) translate(-35.999372482299805px, -22px);-webkit-animation-name: kf_el_kz4jko7Y4k_an_WzTaeb1MF1;animation-name: kf_el_kz4jko7Y4k_an_WzTaeb1MF1;-webkit-animation-timing-function: cubic-bezier(0.42, 0, 0.58, 1);animation-timing-function: cubic-bezier(0.42, 0, 0.58, 1);}#el_e6Bx2aeJeo_an_Td8ggvJmv{-webkit-animation-fill-mode: backwards;animation-fill-mode: backwards;-webkit-transform: translate(51.000375747680664px, 7.000000596046448px) scale(0, 0) translate(-51.000375747680664px, -7.000000596046448px);transform: translate(51.000375747680664px, 7.000000596046448px) scale(0, 0) translate(-51.000375747680664px, -7.000000596046448px);-webkit-animation-name: kf_el_e6Bx2aeJeo_an_Td8ggvJmv;animation-name: kf_el_e6Bx2aeJeo_an_Td8ggvJmv;-webkit-animation-timing-function: cubic-bezier(0.42, 0, 0.58, 1);animation-timing-function: cubic-bezier(0.42, 0, 0.58, 1);}</style>
<circle cx="18" cy="55" r="1" id="el_fk_CB_HJor"/>
<circle cx="26" cy="55" r="1" id="el_gx5vamlgma"/>
<circle cx="34" cy="55" r="1" id="el_Aqa7iHIop2"/>
<path d="M50,36C34.536,36,22,23.464,22,8c0-1.87,0.187-3.696,0.537-5.463C9.689,5.078,0,16.406,0,30&#10;&#9;c0,15.464,12.536,28,28,28c13.594,0,24.922-9.689,27.463-22.537C53.696,35.813,51.87,36,50,36z" id="el_GaiROBcCUr"/>
<g id="el_kz4jko7Y4k_an_WzTaeb1MF1" data-animator-group="true" data-animator-type="2"><path d="M32.052,22.055&#10;&#9;c2.003,0.31,3.583,1.89,3.892,3.892c0.011,0.07,0.1,0.07,0.11,0c0.31-2.003,1.89-3.583,3.892-3.892c0.07-0.011,0.07-0.1,0-0.11&#10;&#9;c-2.003-0.31-3.583-1.89-3.892-3.892c-0.011-0.07-0.1-0.07-0.11,0c-0.31,2.003-1.89,3.583-3.892,3.892&#10;&#9;C31.983,21.956,31.983,22.044,32.052,22.055z" id="el_kz4jko7Y4k"/></g>
<g id="el_e6Bx2aeJeo_an_Td8ggvJmv" data-animator-group="true" data-animator-type="2"><path d="M45.078,7.083&#10;&#9;c3.004,0.465,5.374,2.835,5.839,5.839c0.016,0.105,0.149,0.105,0.166,0c0.465-3.004,2.835-5.374,5.839-5.839&#10;&#9;c0.105-0.016,0.105-0.149,0-0.166c-3.004-0.465-5.374-2.835-5.839-5.839c-0.016-0.105-0.149-0.105-0.166,0&#10;&#9;c-0.465,3.004-2.835,5.374-5.839,5.839C44.974,6.933,44.974,7.067,45.078,7.083z" id="el_e6Bx2aeJeo"/></g>
<circle cx="14" cy="11" r="1" id="el_0o8wesT62j"/>
<circle cx="10" cy="15" r="1" id="el_DceYsskwm9"/>
<circle cx="6" cy="19" r="1" id="el_jjzq3MjIGJ"/>
<circle cx="14" cy="19" r="1" id="el_OpInXDBCzy"/>
<circle cx="2" cy="23" r="1" id="el_P63j8EUw9A"/>
<circle cx="10" cy="23" r="1" id="el_CkjntiBPHc"/>
<circle cx="6" cy="27" r="1" id="el_ZaM8uPyy60"/>
<circle cx="14" cy="27" r="1" id="el_zfTyw35P4o"/>
<circle cx="2" cy="31" r="1" id="el_mvbZ5PNhjy"/>
<circle cx="10" cy="31" r="1" id="el_g4QWX2yY2IO"/>
<circle cx="6" cy="35" r="1" id="el_c2bWHL7MPDz"/>
<circle cx="14" cy="35" r="1" id="el_H-uu2ibR8fy"/>
<circle cx="10" cy="39" r="1" id="el_1LVwU-bhjoe"/>
<circle cx="6" cy="43" r="1" id="el_Cu4NiSr9ksy"/>
<circle cx="14" cy="43" r="1" id="el_OZFZnChwS3y"/>
<circle cx="10" cy="47" r="1" id="el_XCNMWHS-tXB"/>
<circle cx="14" cy="51" r="1" id="el_sstPGl0BoHl"/>
<circle cx="18" cy="15" r="1" id="el_gbQjRtYT77g"/>
<circle cx="18" cy="7" r="1" id="el_bEQ2v6Oa5FE"/>
<circle cx="22" cy="19" r="1" id="el_1NGhgF9ov4L"/>
<circle cx="18" cy="23" r="1" id="el_tbv3AxfzaA_"/>
<circle cx="22" cy="27" r="1" id="el_3HPFzU0xBlW"/>
<circle cx="18" cy="31" r="1" id="el_tdeaAQGXvPg"/>
<circle cx="26" cy="31" r="1" id="el_WfYwQ0f7nDV"/>
<circle cx="22" cy="35" r="1" id="el_Ueaw40gQ3da"/>
<circle cx="30" cy="35" r="1" id="el_4dr9BnhSaxN"/>
<circle cx="18" cy="39" r="1" id="el_Un4D0nDKAgo"/>
<circle cx="26" cy="39" r="1" id="el_kh5PhN-DKzv"/>
<circle cx="22" cy="43" r="1" id="el_ZZxBbIujItP"/>
<circle cx="30" cy="43" r="1" id="el_ZD88Vkzh_8a"/>
<circle cx="18" cy="47" r="1" id="el_iydzQ_0KdjL"/>
<circle cx="26" cy="47" r="1" id="el_tecLtPpZJQA"/>
<circle cx="22" cy="51" r="1" id="el_3HVU5JM2uUI"/>
<circle cx="30" cy="51" r="1" id="el_SnJzaeqhu2m"/>
<circle cx="38" cy="35" r="1" id="el_zHU5AAa1bvF"/>
<circle cx="34" cy="39" r="1" id="el_cHuWmOtn7f3"/>
<circle cx="38" cy="43" r="1" id="el_VWgsdYJW_T_"/>
<circle cx="34" cy="47" r="1" id="el_U7dixa02BnM"/>
<circle cx="38" cy="51" r="1" id="el_CjdnvpKMl5P"/>
<circle cx="42" cy="39" r="1" id="el_7XLz5988O2D"/>
<circle cx="46" cy="43" r="1" id="el_Hsg23UDLPCd"/>
<circle cx="42" cy="47" r="1" id="el_YchyzSXraV8"/>
<circle cx="50" cy="39" r="1" id="el_oiU29gsTFcp"/>
<g id="el_2fOWuDk8GMb">
</g>
<g id="el_B4kQKqnm-v-">
</g>
<g id="el_2AFSTLVXDGd">
</g>
<g id="el_HOmQL8iGeRA">
</g>
<g id="el_Gm1HZv909u8">
</g>
<g id="el_pQumT91knrs">
</g>
<g id="el_02rQkk9TyrN">
</g>
<g id="el_N03Q-cmMZ4K">
</g>
<g id="el_RQKWlnv1ebt">
</g>
<g id="el_tX1Sk4qftp5">
</g>
<g id="el_jFN9Np30df-">
</g>
<g id="el_CJA7DzfDI9W">
</g>
<g id="el_4q8bLqOMkLA">
</g>
<g id="el_dejzSrtBzoh">
</g>
<g id="el_JzaaraW_pMd">
</g>
</svg>